<svg id="visual" viewBox="0 0 1440 320" width="1440" height="320" xmlns="http://www.w3.org/2000/svg" xmlns:xlink="http://www.w3.org/1999/xlink" version="1.1"><path d="M0 105L34.3 100.8C68.7 96.7 137.3 88.3 205.8 87.2C274.3 86 342.7 92 411.2 94.7C479.7 97.3 548.3 96.7 617 90.7C685.7 84.7 754.3 73.3 823 73C891.7 72.7 960.3 83.3 1028.8 86.5C1097.3 89.7 1165.7 85.3 1234.2 89.7C1302.7 94 1371.3 107 1405.7 113.5L1440 120L1440 321L1405.7 321C1371.3 321 1302.7 321 1234.2 321C1165.7 321 1097.3 321 1028.8 321C960.3 321 891.7 321 823 321C754.3 321 685.7 321 617 321C548.3 321 479.7 321 411.2 321C342.7 321 274.3 321 205.8 321C137.3 321 68.7 321 34.3 321L0 321Z" fill="#2d2d2d"></path><path d="M0 166L34.3 165.8C68.7 165.7 137.3 165.3 205.8 167.7C274.3 170 342.7 175 411.2 165.3C479.7 155.7 548.3 131.3 617 127.3C685.7 123.3 754.3 139.7 823 138.5C891.7 137.3 960.3 118.7 1028.8 118.3C1097.3 118 1165.7 136 1234.2 148.2C1302.7 160.3 1371.3 166.7 1405.7 169.8L1440 173L1440 321L1405.7 321C1371.3 321 1302.7 321 1234.2 321C1165.7 321 1097.3 321 1028.8 321C960.3 321 891.7 321 823 321C754.3 321 685.7 321 617 321C548.3 321 479.7 321 411.2 321C342.7 321 274.3 321 205.8 321C137.3 321 68.7 321 34.3 321L0 321Z" fill="#2c2c2c"></path><path d="M0 203L34.3 195.3C68.7 187.7 137.3 172.3 205.8 171.3C274.3 170.3 342.7 183.7 411.2 186C479.7 188.3 548.3 179.7 617 168.7C685.7 157.7 754.3 144.3 823 142C891.7 139.7 960.3 148.3 1028.8 150C1097.3 151.7 1165.7 146.3 1234.2 151.5C1302.7 156.7 1371.3 172.3 1405.7 180.2L1440 188L1440 321L1405.7 321C1371.3 321 1302.7 321 1234.2 321C1165.7 321 1097.3 321 1028.8 321C960.3 321 891.7 321 823 321C754.3 321 685.7 321 617 321C548.3 321 479.7 321 411.2 321C342.7 321 274.3 321 205.8 321C137.3 321 68.7 321 34.3 321L0 321Z" fill="#2a2a2a"></path><path d="M0 179L34.3 178C68.7 177 137.3 175 205.8 180.8C274.3 186.7 342.7 200.3 411.2 211.8C479.7 223.3 548.3 232.7 617 235C685.7 237.3 754.3 232.7 823 231.8C891.7 231 960.3 234 1028.8 229.2C1097.3 224.3 1165.7 211.7 1234.2 204.7C1302.7 197.7 1371.3 196.3 1405.7 195.7L1440 195L1440 321L1405.7 321C1371.3 321 1302.7 321 1234.2 321C1165.7 321 1097.3 321 1028.8 321C960.3 321 891.7 321 823 321C754.3 321 685.7 321 617 321C548.3 321 479.7 321 411.2 321C342.7 321 274.3 321 205.8 321C137.3 321 68.7 321 34.3 321L0 321Z" fill="#252525"></path><path d="M0 211L34.3 220C68.7 229 137.3 247 205.8 254.2C274.3 261.3 342.7 257.7 411.2 258.7C479.7 259.7 548.3 265.3 617 259.2C685.7 253 754.3 235 823 230.2C891.7 225.3 960.3 233.7 1028.8 234.5C1097.3 235.3 1165.7 228.7 1234.2 233.8C1302.7 239 1371.3 256 1405.7 264.5L1440 273L1440 321L1405.7 321C1371.3 321 1302.7 321 1234.2 321C1165.7 321 1097.3 321 1028.8 321C960.3 321 891.7 321 823 321C754.3 321 685.7 321 617 321C548.3 321 479.7 321 411.2 321C342.7 321 274.3 321 205.8 321C137.3 321 68.7 321 34.3 321L0 321Z" fill="#232323"></path><path d="M0 266L34.3 270.3C68.7 274.7 137.3 283.3 205.8 287.8C274.3 292.3 342.7 292.7 411.2 286.8C479.7 281 548.3 269 617 267.3C685.7 265.7 754.3 274.3 823 279.3C891.7 284.3 960.3 285.7 1028.8 281.7C1097.3 277.7 1165.7 268.3 1234.2 262.5C1302.7 256.7 1371.3 254.3 1405.7 253.2L1440 252L1440 321L1405.7 321C1371.3 321 1302.7 321 1234.2 321C1165.7 321 1097.3 321 1028.8 321C960.3 321 891.7 321 823 321C754.3 321 685.7 321 617 321C548.3 321 479.7 321 411.2 321C342.7 321 274.3 321 205.8 321C137.3 321 68.7 321 34.3 321L0 321Z" fill="#212121"></path></svg>