<svg xmlns="http://www.w3.org/2000/svg" xmlns:xlink="http://www.w3.org/1999/xlink" width="400" height="600" xmlns:v="https://vecta.io/nano"><g fill="rgb(55 55 55)"><use xlink:href="#B"/><use xlink:href="#B" x="32"/><use xlink:href="#B" x="64"/><use xlink:href="#B" x="96"/><use xlink:href="#B" x="128"/><use xlink:href="#B" x="160"/><use xlink:href="#B" x="192"/><use xlink:href="#B" x="224"/><use xlink:href="#B" x="256"/><use xlink:href="#B" x="288"/><use xlink:href="#B" x="320"/><use xlink:href="#B" x="352"/><use xlink:href="#B" x="384"/><use xlink:href="#B" y="32"/><use xlink:href="#B" x="32" y="32"/><use xlink:href="#B" x="64" y="32"/><use xlink:href="#B" x="96" y="32"/><use xlink:href="#B" x="128" y="32"/><use xlink:href="#B" x="160" y="32"/><use xlink:href="#B" x="192" y="32"/><use xlink:href="#B" x="224" y="32"/><use xlink:href="#B" x="256" y="32"/><use xlink:href="#B" x="288" y="32"/><use xlink:href="#B" x="320" y="32"/><use xlink:href="#B" x="352" y="32"/><use xlink:href="#B" x="384" y="32"/><use xlink:href="#B" y="64"/><use xlink:href="#B" x="32" y="64"/><use xlink:href="#B" x="64" y="64"/><use xlink:href="#B" x="96" y="64"/><use xlink:href="#B" x="128" y="64"/><use xlink:href="#B" x="160" y="64"/><use xlink:href="#B" x="192" y="64"/><use xlink:href="#B" x="224" y="64"/><use xlink:href="#B" x="256" y="64"/><use xlink:href="#B" x="288" y="64"/><use xlink:href="#B" x="320" y="64"/><use xlink:href="#B" x="352" y="64"/><use xlink:href="#B" x="384" y="64"/><use xlink:href="#B" y="96"/><use xlink:href="#B" x="32" y="96"/><use xlink:href="#B" x="64" y="96"/><use xlink:href="#B" x="96" y="96"/><use xlink:href="#B" x="128" y="96"/><use xlink:href="#B" x="160" y="96"/><use xlink:href="#B" x="192" y="96"/><use xlink:href="#B" x="224" y="96"/><use xlink:href="#B" x="256" y="96"/><use xlink:href="#B" x="288" y="96"/><use xlink:href="#B" x="320" y="96"/><use xlink:href="#B" x="352" y="96"/><use xlink:href="#B" x="384" y="96"/><use xlink:href="#B" y="128"/><use xlink:href="#B" x="32" y="128"/><use xlink:href="#B" x="64" y="128"/><use xlink:href="#B" x="96" y="128"/><use xlink:href="#B" x="128" y="128"/><use xlink:href="#B" x="160" y="128"/><use xlink:href="#B" x="192" y="128"/><use xlink:href="#B" x="224" y="128"/><use xlink:href="#B" x="256" y="128"/><use xlink:href="#B" x="288" y="128"/><use xlink:href="#B" x="320" y="128"/><use xlink:href="#B" x="352" y="128"/><use xlink:href="#B" x="384" y="128"/><use xlink:href="#B" y="160"/><use xlink:href="#B" x="32" y="160"/><use xlink:href="#B" x="64" y="160"/><use xlink:href="#B" x="96" y="160"/><use xlink:href="#B" x="128" y="160"/><use xlink:href="#B" x="160" y="160"/><use xlink:href="#B" x="192" y="160"/><use xlink:href="#B" x="224" y="160"/><use xlink:href="#B" x="256" y="160"/><use xlink:href="#B" x="288" y="160"/><use xlink:href="#B" x="320" y="160"/><use xlink:href="#B" x="352" y="160"/><use xlink:href="#B" x="384" y="160"/><use xlink:href="#B" y="192"/><use xlink:href="#B" x="32" y="192"/><use xlink:href="#B" x="64" y="192"/><use xlink:href="#B" x="96" y="192"/><use xlink:href="#B" x="128" y="192"/><use xlink:href="#B" x="160" y="192"/><use xlink:href="#B" x="192" y="192"/><use xlink:href="#B" x="224" y="192"/><use xlink:href="#B" x="256" y="192"/><use xlink:href="#B" x="288" y="192"/><use xlink:href="#B" x="320" y="192"/><use xlink:href="#B" x="352" y="192"/><use xlink:href="#B" x="384" y="192"/><use xlink:href="#B" y="224"/><use xlink:href="#B" x="32" y="224"/><use xlink:href="#B" x="64" y="224"/><use xlink:href="#B" x="96" y="224"/><use xlink:href="#B" x="128" y="224"/><use xlink:href="#B" x="160" y="224"/><use xlink:href="#B" x="192" y="224"/><use xlink:href="#B" x="224" y="224"/><use xlink:href="#B" x="256" y="224"/><use xlink:href="#B" x="288" y="224"/><use xlink:href="#B" x="320" y="224"/><use xlink:href="#B" x="352" y="224"/><use xlink:href="#B" x="384" y="224"/><use xlink:href="#B" y="256"/><use xlink:href="#B" x="32" y="256"/><use xlink:href="#B" x="64" y="256"/><use xlink:href="#B" x="96" y="256"/><use xlink:href="#B" x="128" y="256"/><use xlink:href="#B" x="160" y="256"/><use xlink:href="#B" x="192" y="256"/><use xlink:href="#B" x="224" y="256"/><use xlink:href="#B" x="256" y="256"/><use xlink:href="#B" x="288" y="256"/><use xlink:href="#B" x="320" y="256"/><use xlink:href="#B" x="352" y="256"/><use xlink:href="#B" x="384" y="256"/><use xlink:href="#B" y="288"/><use xlink:href="#B" x="32" y="288"/><use xlink:href="#B" x="64" y="288"/><use xlink:href="#B" x="96" y="288"/><use xlink:href="#B" x="128" y="288"/><use xlink:href="#B" x="160" y="288"/><use xlink:href="#B" x="192" y="288"/><use xlink:href="#B" x="224" y="288"/><use xlink:href="#B" x="256" y="288"/><use xlink:href="#B" x="288" y="288"/><use xlink:href="#B" x="320" y="288"/><use xlink:href="#B" x="352" y="288"/><use xlink:href="#B" x="384" y="288"/><use xlink:href="#B" y="320"/><use xlink:href="#B" x="32" y="320"/><use xlink:href="#B" x="64" y="320"/><use xlink:href="#B" x="96" y="320"/><use xlink:href="#B" x="128" y="320"/><use xlink:href="#B" x="160" y="320"/><use xlink:href="#B" x="192" y="320"/><use xlink:href="#B" x="224" y="320"/><use xlink:href="#B" x="256" y="320"/><use xlink:href="#B" x="288" y="320"/><use xlink:href="#B" x="320" y="320"/><use xlink:href="#B" x="352" y="320"/><use xlink:href="#B" x="384" y="320"/><use xlink:href="#B" y="352"/><use xlink:href="#B" x="32" y="352"/><use xlink:href="#B" x="64" y="352"/><use xlink:href="#B" x="96" y="352"/><use xlink:href="#B" x="128" y="352"/><use xlink:href="#B" x="160" y="352"/><use xlink:href="#B" x="192" y="352"/><use xlink:href="#B" x="224" y="352"/><use xlink:href="#B" x="256" y="352"/><use xlink:href="#B" x="288" y="352"/><use xlink:href="#B" x="320" y="352"/><use xlink:href="#B" x="352" y="352"/><use xlink:href="#B" x="384" y="352"/><use xlink:href="#B" y="384"/><use xlink:href="#B" x="32" y="384"/><use xlink:href="#B" x="64" y="384"/><use xlink:href="#B" x="96" y="384"/><use xlink:href="#B" x="128" y="384"/><use xlink:href="#B" x="160" y="384"/><use xlink:href="#B" x="192" y="384"/><use xlink:href="#B" x="224" y="384"/><use xlink:href="#B" x="256" y="384"/><use xlink:href="#B" x="288" y="384"/><use xlink:href="#B" x="320" y="384"/><use xlink:href="#B" x="352" y="384"/><use xlink:href="#B" x="384" y="384"/><use xlink:href="#B" y="416"/><use xlink:href="#B" x="32" y="416"/><use xlink:href="#B" x="64" y="416"/><use xlink:href="#B" x="96" y="416"/><use xlink:href="#B" x="128" y="416"/><use xlink:href="#B" x="160" y="416"/><use xlink:href="#B" x="192" y="416"/><use xlink:href="#B" x="224" y="416"/><use xlink:href="#B" x="256" y="416"/><use xlink:href="#B" x="288" y="416"/><use xlink:href="#B" x="320" y="416"/><use xlink:href="#B" x="352" y="416"/><use xlink:href="#B" x="384" y="416"/><use xlink:href="#B" y="448"/><use xlink:href="#B" x="32" y="448"/><use xlink:href="#B" x="64" y="448"/><use xlink:href="#B" x="96" y="448"/><use xlink:href="#B" x="128" y="448"/><use xlink:href="#B" x="160" y="448"/><use xlink:href="#B" x="192" y="448"/><use xlink:href="#B" x="224" y="448"/><use xlink:href="#B" x="256" y="448"/><use xlink:href="#B" x="288" y="448"/><use xlink:href="#B" x="320" y="448"/><use xlink:href="#B" x="352" y="448"/><use xlink:href="#B" x="384" y="448"/><use xlink:href="#B" y="480"/><use xlink:href="#B" x="32" y="480"/><use xlink:href="#B" x="64" y="480"/><use xlink:href="#B" x="96" y="480"/><use xlink:href="#B" x="128" y="480"/><use xlink:href="#B" x="160" y="480"/><use xlink:href="#B" x="192" y="480"/><use xlink:href="#B" x="224" y="480"/><use xlink:href="#B" x="256" y="480"/><use xlink:href="#B" x="288" y="480"/><use xlink:href="#B" x="320" y="480"/><use xlink:href="#B" x="352" y="480"/><use xlink:href="#B" x="384" y="480"/><use xlink:href="#B" y="512"/><use xlink:href="#B" x="32" y="512"/><use xlink:href="#B" x="64" y="512"/><use xlink:href="#B" x="96" y="512"/><use xlink:href="#B" x="128" y="512"/><use xlink:href="#B" x="160" y="512"/><use xlink:href="#B" x="192" y="512"/><use xlink:href="#B" x="224" y="512"/><use xlink:href="#B" x="256" y="512"/><use xlink:href="#B" x="288" y="512"/><use xlink:href="#B" x="320" y="512"/><use xlink:href="#B" x="352" y="512"/><use xlink:href="#B" x="384" y="512"/><use xlink:href="#B" y="544"/><use xlink:href="#B" x="32" y="544"/><use xlink:href="#B" x="64" y="544"/><use xlink:href="#B" x="96" y="544"/><use xlink:href="#B" x="128" y="544"/><use xlink:href="#B" x="160" y="544"/><use xlink:href="#B" x="192" y="544"/><use xlink:href="#B" x="224" y="544"/><use xlink:href="#B" x="256" y="544"/><use xlink:href="#B" x="288" y="544"/><use xlink:href="#B" x="320" y="544"/><use xlink:href="#B" x="352" y="544"/><use xlink:href="#B" x="384" y="544"/><use xlink:href="#B" y="576"/><use xlink:href="#B" x="32" y="576"/><use xlink:href="#B" x="64" y="576"/><use xlink:href="#B" x="96" y="576"/><use xlink:href="#B" x="128" y="576"/><use xlink:href="#B" x="160" y="576"/><use xlink:href="#B" x="192" y="576"/><use xlink:href="#B" x="224" y="576"/><use xlink:href="#B" x="256" y="576"/><use xlink:href="#B" x="288" y="576"/><use xlink:href="#B" x="320" y="576"/><use xlink:href="#B" x="352" y="576"/><use xlink:href="#B" x="384" y="576"/><use xlink:href="#B" y="608"/><use xlink:href="#B" x="32" y="608"/><use xlink:href="#B" x="64" y="608"/><use xlink:href="#B" x="96" y="608"/><use xlink:href="#B" x="128" y="608"/><use xlink:href="#B" x="160" y="608"/><use xlink:href="#B" x="192" y="608"/><use xlink:href="#B" x="224" y="608"/><use xlink:href="#B" x="256" y="608"/><use xlink:href="#B" x="288" y="608"/><use xlink:href="#B" x="320" y="608"/><use xlink:href="#B" x="352" y="608"/><use xlink:href="#B" x="384" y="608"/><use xlink:href="#B" y="640"/><use xlink:href="#B" x="32" y="640"/><use xlink:href="#B" x="64" y="640"/><use xlink:href="#B" x="96" y="640"/><use xlink:href="#B" x="128" y="640"/><use xlink:href="#B" x="160" y="640"/><use xlink:href="#B" x="192" y="640"/><use xlink:href="#B" x="224" y="640"/><use xlink:href="#B" x="256" y="640"/><use xlink:href="#B" x="288" y="640"/><use xlink:href="#B" x="320" y="640"/><use xlink:href="#B" x="352" y="640"/><use xlink:href="#B" x="384" y="640"/><use xlink:href="#B" y="672"/><use xlink:href="#B" x="32" y="672"/><use xlink:href="#B" x="64" y="672"/><use xlink:href="#B" x="96" y="672"/><use xlink:href="#B" x="128" y="672"/><use xlink:href="#B" x="160" y="672"/><use xlink:href="#B" x="192" y="672"/><use xlink:href="#B" x="224" y="672"/><use xlink:href="#B" x="256" y="672"/><use xlink:href="#B" x="288" y="672"/><use xlink:href="#B" x="320" y="672"/><use xlink:href="#B" x="352" y="672"/><use xlink:href="#B" x="384" y="672"/><use xlink:href="#B" y="704"/><use xlink:href="#B" x="32" y="704"/><use xlink:href="#B" x="64" y="704"/><use xlink:href="#B" x="96" y="704"/><use xlink:href="#B" x="128" y="704"/><use xlink:href="#B" x="160" y="704"/><use xlink:href="#B" x="192" y="704"/><use xlink:href="#B" x="224" y="704"/><use xlink:href="#B" x="256" y="704"/><use xlink:href="#B" x="288" y="704"/><use xlink:href="#B" x="320" y="704"/><use xlink:href="#B" x="352" y="704"/><use xlink:href="#B" x="384" y="704"/><use xlink:href="#B" y="736"/><use xlink:href="#B" x="32" y="736"/><use xlink:href="#B" x="64" y="736"/><use xlink:href="#B" x="96" y="736"/><use xlink:href="#B" x="128" y="736"/><use xlink:href="#B" x="160" y="736"/><use xlink:href="#B" x="192" y="736"/><use xlink:href="#B" x="224" y="736"/><use xlink:href="#B" x="256" y="736"/><use xlink:href="#B" x="288" y="736"/><use xlink:href="#B" x="320" y="736"/><use xlink:href="#B" x="352" y="736"/><use xlink:href="#B" x="384" y="736"/><use xlink:href="#B" y="768"/><use xlink:href="#B" x="32" y="768"/><use xlink:href="#B" x="64" y="768"/><use xlink:href="#B" x="96" y="768"/><use xlink:href="#B" x="128" y="768"/><use xlink:href="#B" x="160" y="768"/><use xlink:href="#B" x="192" y="768"/><use xlink:href="#B" x="224" y="768"/><use xlink:href="#B" x="256" y="768"/><use xlink:href="#B" x="288" y="768"/><use xlink:href="#B" x="320" y="768"/><use xlink:href="#B" x="352" y="768"/><use xlink:href="#B" x="384" y="768"/><use xlink:href="#B" y="800"/><use xlink:href="#B" x="32" y="800"/><use xlink:href="#B" x="64" y="800"/><use xlink:href="#B" x="96" y="800"/><use xlink:href="#B" x="128" y="800"/><use xlink:href="#B" x="160" y="800"/><use xlink:href="#B" x="192" y="800"/><use xlink:href="#B" x="224" y="800"/><use xlink:href="#B" x="256" y="800"/><use xlink:href="#B" x="288" y="800"/><use xlink:href="#B" x="320" y="800"/><use xlink:href="#B" x="352" y="800"/><use xlink:href="#B" x="384" y="800"/><use xlink:href="#B" y="832"/><use xlink:href="#B" x="32" y="832"/><use xlink:href="#B" x="64" y="832"/><use xlink:href="#B" x="96" y="832"/><use xlink:href="#B" x="128" y="832"/><use xlink:href="#B" x="160" y="832"/><use xlink:href="#B" x="192" y="832"/><use xlink:href="#B" x="224" y="832"/><use xlink:href="#B" x="256" y="832"/><use xlink:href="#B" x="288" y="832"/><use xlink:href="#B" x="320" y="832"/><use xlink:href="#B" x="352" y="832"/><use xlink:href="#B" x="384" y="832"/><use xlink:href="#B" y="864"/><use xlink:href="#B" x="32" y="864"/><use xlink:href="#B" x="64" y="864"/><use xlink:href="#B" x="96" y="864"/><use xlink:href="#B" x="128" y="864"/><use xlink:href="#B" x="160" y="864"/><use xlink:href="#B" x="192" y="864"/><use xlink:href="#B" x="224" y="864"/><use xlink:href="#B" x="256" y="864"/><use xlink:href="#B" x="288" y="864"/><use xlink:href="#B" x="320" y="864"/><use xlink:href="#B" x="352" y="864"/><use xlink:href="#B" x="384" y="864"/><use xlink:href="#B" y="896"/><use xlink:href="#B" x="32" y="896"/><use xlink:href="#B" x="64" y="896"/><use xlink:href="#B" x="96" y="896"/><use xlink:href="#B" x="128" y="896"/><use xlink:href="#B" x="160" y="896"/><use xlink:href="#B" x="192" y="896"/><use xlink:href="#B" x="224" y="896"/><use xlink:href="#B" x="256" y="896"/><use xlink:href="#B" x="288" y="896"/><use xlink:href="#B" x="320" y="896"/><use xlink:href="#B" x="352" y="896"/><use xlink:href="#B" x="384" y="896"/><use xlink:href="#B" y="928"/><use xlink:href="#B" x="32" y="928"/><use xlink:href="#B" x="64" y="928"/><use xlink:href="#B" x="96" y="928"/><use xlink:href="#B" x="128" y="928"/><use xlink:href="#B" x="160" y="928"/><use xlink:href="#B" x="192" y="928"/><use xlink:href="#B" x="224" y="928"/><use xlink:href="#B" x="256" y="928"/><use xlink:href="#B" x="288" y="928"/><use xlink:href="#B" x="320" y="928"/><use xlink:href="#B" x="352" y="928"/><use xlink:href="#B" x="384" y="928"/><use xlink:href="#B" y="960"/><use xlink:href="#B" x="32" y="960"/><use xlink:href="#B" x="64" y="960"/><use xlink:href="#B" x="96" y="960"/><use xlink:href="#B" x="128" y="960"/><use xlink:href="#B" x="160" y="960"/><use xlink:href="#B" x="192" y="960"/><use xlink:href="#B" x="224" y="960"/><use xlink:href="#B" x="256" y="960"/><use xlink:href="#B" x="288" y="960"/></g><defs ><path id="B" d="M4 0h0a4 4 0 0 1 4 4h0a4 4 0 0 1-4 4h0a4 4 0 0 1-4-4h0a4 4 0 0 1 4-4"/></defs></svg>