<svg width="400" height="600" viewBox="0 0 400 600" xmlns="http://www.w3.org/2000/svg"><path x="0" y="0" width="8" height="8" fill="rgb(55 55 55)" d="M4,0 h0 a4,4 0 0 1 4,4 v0 a4,4 0 0 1 -4,4 h0 a4,4 0 0 1 -4,-4 v0 a4,4 0 0 1 4,-4"/><path x="32" y="0" width="8" height="8" fill="rgb(55 55 55)" d="M36,0 h0 a4,4 0 0 1 4,4 v0 a4,4 0 0 1 -4,4 h0 a4,4 0 0 1 -4,-4 v0 a4,4 0 0 1 4,-4"/><path x="64" y="0" width="8" height="8" fill="rgb(55 55 55)" d="M68,0 h0 a4,4 0 0 1 4,4 v0 a4,4 0 0 1 -4,4 h0 a4,4 0 0 1 -4,-4 v0 a4,4 0 0 1 4,-4"/><path x="96" y="0" width="8" height="8" fill="rgb(55 55 55)" d="M100,0 h0 a4,4 0 0 1 4,4 v0 a4,4 0 0 1 -4,4 h0 a4,4 0 0 1 -4,-4 v0 a4,4 0 0 1 4,-4"/><path x="128" y="0" width="8" height="8" fill="rgb(55 55 55)" d="M132,0 h0 a4,4 0 0 1 4,4 v0 a4,4 0 0 1 -4,4 h0 a4,4 0 0 1 -4,-4 v0 a4,4 0 0 1 4,-4"/><path x="160" y="0" width="8" height="8" fill="rgb(55 55 55)" d="M164,0 h0 a4,4 0 0 1 4,4 v0 a4,4 0 0 1 -4,4 h0 a4,4 0 0 1 -4,-4 v0 a4,4 0 0 1 4,-4"/><path x="192" y="0" width="8" height="8" fill="rgb(55 55 55)" d="M196,0 h0 a4,4 0 0 1 4,4 v0 a4,4 0 0 1 -4,4 h0 a4,4 0 0 1 -4,-4 v0 a4,4 0 0 1 4,-4"/><path x="224" y="0" width="8" height="8" fill="rgb(55 55 55)" d="M228,0 h0 a4,4 0 0 1 4,4 v0 a4,4 0 0 1 -4,4 h0 a4,4 0 0 1 -4,-4 v0 a4,4 0 0 1 4,-4"/><path x="256" y="0" width="8" height="8" fill="rgb(55 55 55)" d="M260,0 h0 a4,4 0 0 1 4,4 v0 a4,4 0 0 1 -4,4 h0 a4,4 0 0 1 -4,-4 v0 a4,4 0 0 1 4,-4"/><path x="288" y="0" width="8" height="8" fill="rgb(55 55 55)" d="M292,0 h0 a4,4 0 0 1 4,4 v0 a4,4 0 0 1 -4,4 h0 a4,4 0 0 1 -4,-4 v0 a4,4 0 0 1 4,-4"/><path x="320" y="0" width="8" height="8" fill="rgb(55 55 55)" d="M324,0 h0 a4,4 0 0 1 4,4 v0 a4,4 0 0 1 -4,4 h0 a4,4 0 0 1 -4,-4 v0 a4,4 0 0 1 4,-4"/><path x="352" y="0" width="8" height="8" fill="rgb(55 55 55)" d="M356,0 h0 a4,4 0 0 1 4,4 v0 a4,4 0 0 1 -4,4 h0 a4,4 0 0 1 -4,-4 v0 a4,4 0 0 1 4,-4"/><path x="384" y="0" width="8" height="8" fill="rgb(55 55 55)" d="M388,0 h0 a4,4 0 0 1 4,4 v0 a4,4 0 0 1 -4,4 h0 a4,4 0 0 1 -4,-4 v0 a4,4 0 0 1 4,-4"/><path x="0" y="32" width="8" height="8" fill="rgb(55 55 55)" d="M4,32 h0 a4,4 0 0 1 4,4 v0 a4,4 0 0 1 -4,4 h0 a4,4 0 0 1 -4,-4 v0 a4,4 0 0 1 4,-4"/><path x="32" y="32" width="8" height="8" fill="rgb(55 55 55)" d="M36,32 h0 a4,4 0 0 1 4,4 v0 a4,4 0 0 1 -4,4 h0 a4,4 0 0 1 -4,-4 v0 a4,4 0 0 1 4,-4"/><path x="64" y="32" width="8" height="8" fill="rgb(55 55 55)" d="M68,32 h0 a4,4 0 0 1 4,4 v0 a4,4 0 0 1 -4,4 h0 a4,4 0 0 1 -4,-4 v0 a4,4 0 0 1 4,-4"/><path x="96" y="32" width="8" height="8" fill="rgb(55 55 55)" d="M100,32 h0 a4,4 0 0 1 4,4 v0 a4,4 0 0 1 -4,4 h0 a4,4 0 0 1 -4,-4 v0 a4,4 0 0 1 4,-4"/><path x="128" y="32" width="8" height="8" fill="rgb(55 55 55)" d="M132,32 h0 a4,4 0 0 1 4,4 v0 a4,4 0 0 1 -4,4 h0 a4,4 0 0 1 -4,-4 v0 a4,4 0 0 1 4,-4"/><path x="160" y="32" width="8" height="8" fill="rgb(55 55 55)" d="M164,32 h0 a4,4 0 0 1 4,4 v0 a4,4 0 0 1 -4,4 h0 a4,4 0 0 1 -4,-4 v0 a4,4 0 0 1 4,-4"/><path x="192" y="32" width="8" height="8" fill="rgb(55 55 55)" d="M196,32 h0 a4,4 0 0 1 4,4 v0 a4,4 0 0 1 -4,4 h0 a4,4 0 0 1 -4,-4 v0 a4,4 0 0 1 4,-4"/><path x="224" y="32" width="8" height="8" fill="rgb(55 55 55)" d="M228,32 h0 a4,4 0 0 1 4,4 v0 a4,4 0 0 1 -4,4 h0 a4,4 0 0 1 -4,-4 v0 a4,4 0 0 1 4,-4"/><path x="256" y="32" width="8" height="8" fill="rgb(55 55 55)" d="M260,32 h0 a4,4 0 0 1 4,4 v0 a4,4 0 0 1 -4,4 h0 a4,4 0 0 1 -4,-4 v0 a4,4 0 0 1 4,-4"/><path x="288" y="32" width="8" height="8" fill="rgb(55 55 55)" d="M292,32 h0 a4,4 0 0 1 4,4 v0 a4,4 0 0 1 -4,4 h0 a4,4 0 0 1 -4,-4 v0 a4,4 0 0 1 4,-4"/><path x="320" y="32" width="8" height="8" fill="rgb(55 55 55)" d="M324,32 h0 a4,4 0 0 1 4,4 v0 a4,4 0 0 1 -4,4 h0 a4,4 0 0 1 -4,-4 v0 a4,4 0 0 1 4,-4"/><path x="352" y="32" width="8" height="8" fill="rgb(55 55 55)" d="M356,32 h0 a4,4 0 0 1 4,4 v0 a4,4 0 0 1 -4,4 h0 a4,4 0 0 1 -4,-4 v0 a4,4 0 0 1 4,-4"/><path x="384" y="32" width="8" height="8" fill="rgb(55 55 55)" d="M388,32 h0 a4,4 0 0 1 4,4 v0 a4,4 0 0 1 -4,4 h0 a4,4 0 0 1 -4,-4 v0 a4,4 0 0 1 4,-4"/><path x="0" y="64" width="8" height="8" fill="rgb(55 55 55)" d="M4,64 h0 a4,4 0 0 1 4,4 v0 a4,4 0 0 1 -4,4 h0 a4,4 0 0 1 -4,-4 v0 a4,4 0 0 1 4,-4"/><path x="32" y="64" width="8" height="8" fill="rgb(55 55 55)" d="M36,64 h0 a4,4 0 0 1 4,4 v0 a4,4 0 0 1 -4,4 h0 a4,4 0 0 1 -4,-4 v0 a4,4 0 0 1 4,-4"/><path x="64" y="64" width="8" height="8" fill="rgb(55 55 55)" d="M68,64 h0 a4,4 0 0 1 4,4 v0 a4,4 0 0 1 -4,4 h0 a4,4 0 0 1 -4,-4 v0 a4,4 0 0 1 4,-4"/><path x="96" y="64" width="8" height="8" fill="rgb(55 55 55)" d="M100,64 h0 a4,4 0 0 1 4,4 v0 a4,4 0 0 1 -4,4 h0 a4,4 0 0 1 -4,-4 v0 a4,4 0 0 1 4,-4"/><path x="128" y="64" width="8" height="8" fill="rgb(55 55 55)" d="M132,64 h0 a4,4 0 0 1 4,4 v0 a4,4 0 0 1 -4,4 h0 a4,4 0 0 1 -4,-4 v0 a4,4 0 0 1 4,-4"/><path x="160" y="64" width="8" height="8" fill="rgb(55 55 55)" d="M164,64 h0 a4,4 0 0 1 4,4 v0 a4,4 0 0 1 -4,4 h0 a4,4 0 0 1 -4,-4 v0 a4,4 0 0 1 4,-4"/><path x="192" y="64" width="8" height="8" fill="rgb(55 55 55)" d="M196,64 h0 a4,4 0 0 1 4,4 v0 a4,4 0 0 1 -4,4 h0 a4,4 0 0 1 -4,-4 v0 a4,4 0 0 1 4,-4"/><path x="224" y="64" width="8" height="8" fill="rgb(55 55 55)" d="M228,64 h0 a4,4 0 0 1 4,4 v0 a4,4 0 0 1 -4,4 h0 a4,4 0 0 1 -4,-4 v0 a4,4 0 0 1 4,-4"/><path x="256" y="64" width="8" height="8" fill="rgb(55 55 55)" d="M260,64 h0 a4,4 0 0 1 4,4 v0 a4,4 0 0 1 -4,4 h0 a4,4 0 0 1 -4,-4 v0 a4,4 0 0 1 4,-4"/><path x="288" y="64" width="8" height="8" fill="rgb(55 55 55)" d="M292,64 h0 a4,4 0 0 1 4,4 v0 a4,4 0 0 1 -4,4 h0 a4,4 0 0 1 -4,-4 v0 a4,4 0 0 1 4,-4"/><path x="320" y="64" width="8" height="8" fill="rgb(55 55 55)" d="M324,64 h0 a4,4 0 0 1 4,4 v0 a4,4 0 0 1 -4,4 h0 a4,4 0 0 1 -4,-4 v0 a4,4 0 0 1 4,-4"/><path x="352" y="64" width="8" height="8" fill="rgb(55 55 55)" d="M356,64 h0 a4,4 0 0 1 4,4 v0 a4,4 0 0 1 -4,4 h0 a4,4 0 0 1 -4,-4 v0 a4,4 0 0 1 4,-4"/><path x="384" y="64" width="8" height="8" fill="rgb(55 55 55)" d="M388,64 h0 a4,4 0 0 1 4,4 v0 a4,4 0 0 1 -4,4 h0 a4,4 0 0 1 -4,-4 v0 a4,4 0 0 1 4,-4"/><path x="0" y="96" width="8" height="8" fill="rgb(55 55 55)" d="M4,96 h0 a4,4 0 0 1 4,4 v0 a4,4 0 0 1 -4,4 h0 a4,4 0 0 1 -4,-4 v0 a4,4 0 0 1 4,-4"/><path x="32" y="96" width="8" height="8" fill="rgb(55 55 55)" d="M36,96 h0 a4,4 0 0 1 4,4 v0 a4,4 0 0 1 -4,4 h0 a4,4 0 0 1 -4,-4 v0 a4,4 0 0 1 4,-4"/><path x="64" y="96" width="8" height="8" fill="rgb(55 55 55)" d="M68,96 h0 a4,4 0 0 1 4,4 v0 a4,4 0 0 1 -4,4 h0 a4,4 0 0 1 -4,-4 v0 a4,4 0 0 1 4,-4"/><path x="96" y="96" width="8" height="8" fill="rgb(55 55 55)" d="M100,96 h0 a4,4 0 0 1 4,4 v0 a4,4 0 0 1 -4,4 h0 a4,4 0 0 1 -4,-4 v0 a4,4 0 0 1 4,-4"/><path x="128" y="96" width="8" height="8" fill="rgb(55 55 55)" d="M132,96 h0 a4,4 0 0 1 4,4 v0 a4,4 0 0 1 -4,4 h0 a4,4 0 0 1 -4,-4 v0 a4,4 0 0 1 4,-4"/><path x="160" y="96" width="8" height="8" fill="rgb(55 55 55)" d="M164,96 h0 a4,4 0 0 1 4,4 v0 a4,4 0 0 1 -4,4 h0 a4,4 0 0 1 -4,-4 v0 a4,4 0 0 1 4,-4"/><path x="192" y="96" width="8" height="8" fill="rgb(55 55 55)" d="M196,96 h0 a4,4 0 0 1 4,4 v0 a4,4 0 0 1 -4,4 h0 a4,4 0 0 1 -4,-4 v0 a4,4 0 0 1 4,-4"/><path x="224" y="96" width="8" height="8" fill="rgb(55 55 55)" d="M228,96 h0 a4,4 0 0 1 4,4 v0 a4,4 0 0 1 -4,4 h0 a4,4 0 0 1 -4,-4 v0 a4,4 0 0 1 4,-4"/><path x="256" y="96" width="8" height="8" fill="rgb(55 55 55)" d="M260,96 h0 a4,4 0 0 1 4,4 v0 a4,4 0 0 1 -4,4 h0 a4,4 0 0 1 -4,-4 v0 a4,4 0 0 1 4,-4"/><path x="288" y="96" width="8" height="8" fill="rgb(55 55 55)" d="M292,96 h0 a4,4 0 0 1 4,4 v0 a4,4 0 0 1 -4,4 h0 a4,4 0 0 1 -4,-4 v0 a4,4 0 0 1 4,-4"/><path x="320" y="96" width="8" height="8" fill="rgb(55 55 55)" d="M324,96 h0 a4,4 0 0 1 4,4 v0 a4,4 0 0 1 -4,4 h0 a4,4 0 0 1 -4,-4 v0 a4,4 0 0 1 4,-4"/><path x="352" y="96" width="8" height="8" fill="rgb(55 55 55)" d="M356,96 h0 a4,4 0 0 1 4,4 v0 a4,4 0 0 1 -4,4 h0 a4,4 0 0 1 -4,-4 v0 a4,4 0 0 1 4,-4"/><path x="384" y="96" width="8" height="8" fill="rgb(55 55 55)" d="M388,96 h0 a4,4 0 0 1 4,4 v0 a4,4 0 0 1 -4,4 h0 a4,4 0 0 1 -4,-4 v0 a4,4 0 0 1 4,-4"/><path x="0" y="128" width="8" height="8" fill="rgb(55 55 55)" d="M4,128 h0 a4,4 0 0 1 4,4 v0 a4,4 0 0 1 -4,4 h0 a4,4 0 0 1 -4,-4 v0 a4,4 0 0 1 4,-4"/><path x="32" y="128" width="8" height="8" fill="rgb(55 55 55)" d="M36,128 h0 a4,4 0 0 1 4,4 v0 a4,4 0 0 1 -4,4 h0 a4,4 0 0 1 -4,-4 v0 a4,4 0 0 1 4,-4"/><path x="64" y="128" width="8" height="8" fill="rgb(55 55 55)" d="M68,128 h0 a4,4 0 0 1 4,4 v0 a4,4 0 0 1 -4,4 h0 a4,4 0 0 1 -4,-4 v0 a4,4 0 0 1 4,-4"/><path x="96" y="128" width="8" height="8" fill="rgb(55 55 55)" d="M100,128 h0 a4,4 0 0 1 4,4 v0 a4,4 0 0 1 -4,4 h0 a4,4 0 0 1 -4,-4 v0 a4,4 0 0 1 4,-4"/><path x="128" y="128" width="8" height="8" fill="rgb(55 55 55)" d="M132,128 h0 a4,4 0 0 1 4,4 v0 a4,4 0 0 1 -4,4 h0 a4,4 0 0 1 -4,-4 v0 a4,4 0 0 1 4,-4"/><path x="160" y="128" width="8" height="8" fill="rgb(55 55 55)" d="M164,128 h0 a4,4 0 0 1 4,4 v0 a4,4 0 0 1 -4,4 h0 a4,4 0 0 1 -4,-4 v0 a4,4 0 0 1 4,-4"/><path x="192" y="128" width="8" height="8" fill="rgb(55 55 55)" d="M196,128 h0 a4,4 0 0 1 4,4 v0 a4,4 0 0 1 -4,4 h0 a4,4 0 0 1 -4,-4 v0 a4,4 0 0 1 4,-4"/><path x="224" y="128" width="8" height="8" fill="rgb(55 55 55)" d="M228,128 h0 a4,4 0 0 1 4,4 v0 a4,4 0 0 1 -4,4 h0 a4,4 0 0 1 -4,-4 v0 a4,4 0 0 1 4,-4"/><path x="256" y="128" width="8" height="8" fill="rgb(55 55 55)" d="M260,128 h0 a4,4 0 0 1 4,4 v0 a4,4 0 0 1 -4,4 h0 a4,4 0 0 1 -4,-4 v0 a4,4 0 0 1 4,-4"/><path x="288" y="128" width="8" height="8" fill="rgb(55 55 55)" d="M292,128 h0 a4,4 0 0 1 4,4 v0 a4,4 0 0 1 -4,4 h0 a4,4 0 0 1 -4,-4 v0 a4,4 0 0 1 4,-4"/><path x="320" y="128" width="8" height="8" fill="rgb(55 55 55)" d="M324,128 h0 a4,4 0 0 1 4,4 v0 a4,4 0 0 1 -4,4 h0 a4,4 0 0 1 -4,-4 v0 a4,4 0 0 1 4,-4"/><path x="352" y="128" width="8" height="8" fill="rgb(55 55 55)" d="M356,128 h0 a4,4 0 0 1 4,4 v0 a4,4 0 0 1 -4,4 h0 a4,4 0 0 1 -4,-4 v0 a4,4 0 0 1 4,-4"/><path x="384" y="128" width="8" height="8" fill="rgb(55 55 55)" d="M388,128 h0 a4,4 0 0 1 4,4 v0 a4,4 0 0 1 -4,4 h0 a4,4 0 0 1 -4,-4 v0 a4,4 0 0 1 4,-4"/><path x="0" y="160" width="8" height="8" fill="rgb(55 55 55)" d="M4,160 h0 a4,4 0 0 1 4,4 v0 a4,4 0 0 1 -4,4 h0 a4,4 0 0 1 -4,-4 v0 a4,4 0 0 1 4,-4"/><path x="32" y="160" width="8" height="8" fill="rgb(55 55 55)" d="M36,160 h0 a4,4 0 0 1 4,4 v0 a4,4 0 0 1 -4,4 h0 a4,4 0 0 1 -4,-4 v0 a4,4 0 0 1 4,-4"/><path x="64" y="160" width="8" height="8" fill="rgb(55 55 55)" d="M68,160 h0 a4,4 0 0 1 4,4 v0 a4,4 0 0 1 -4,4 h0 a4,4 0 0 1 -4,-4 v0 a4,4 0 0 1 4,-4"/><path x="96" y="160" width="8" height="8" fill="rgb(55 55 55)" d="M100,160 h0 a4,4 0 0 1 4,4 v0 a4,4 0 0 1 -4,4 h0 a4,4 0 0 1 -4,-4 v0 a4,4 0 0 1 4,-4"/><path x="128" y="160" width="8" height="8" fill="rgb(55 55 55)" d="M132,160 h0 a4,4 0 0 1 4,4 v0 a4,4 0 0 1 -4,4 h0 a4,4 0 0 1 -4,-4 v0 a4,4 0 0 1 4,-4"/><path x="160" y="160" width="8" height="8" fill="rgb(55 55 55)" d="M164,160 h0 a4,4 0 0 1 4,4 v0 a4,4 0 0 1 -4,4 h0 a4,4 0 0 1 -4,-4 v0 a4,4 0 0 1 4,-4"/><path x="192" y="160" width="8" height="8" fill="rgb(55 55 55)" d="M196,160 h0 a4,4 0 0 1 4,4 v0 a4,4 0 0 1 -4,4 h0 a4,4 0 0 1 -4,-4 v0 a4,4 0 0 1 4,-4"/><path x="224" y="160" width="8" height="8" fill="rgb(55 55 55)" d="M228,160 h0 a4,4 0 0 1 4,4 v0 a4,4 0 0 1 -4,4 h0 a4,4 0 0 1 -4,-4 v0 a4,4 0 0 1 4,-4"/><path x="256" y="160" width="8" height="8" fill="rgb(55 55 55)" d="M260,160 h0 a4,4 0 0 1 4,4 v0 a4,4 0 0 1 -4,4 h0 a4,4 0 0 1 -4,-4 v0 a4,4 0 0 1 4,-4"/><path x="288" y="160" width="8" height="8" fill="rgb(55 55 55)" d="M292,160 h0 a4,4 0 0 1 4,4 v0 a4,4 0 0 1 -4,4 h0 a4,4 0 0 1 -4,-4 v0 a4,4 0 0 1 4,-4"/><path x="320" y="160" width="8" height="8" fill="rgb(55 55 55)" d="M324,160 h0 a4,4 0 0 1 4,4 v0 a4,4 0 0 1 -4,4 h0 a4,4 0 0 1 -4,-4 v0 a4,4 0 0 1 4,-4"/><path x="352" y="160" width="8" height="8" fill="rgb(55 55 55)" d="M356,160 h0 a4,4 0 0 1 4,4 v0 a4,4 0 0 1 -4,4 h0 a4,4 0 0 1 -4,-4 v0 a4,4 0 0 1 4,-4"/><path x="384" y="160" width="8" height="8" fill="rgb(55 55 55)" d="M388,160 h0 a4,4 0 0 1 4,4 v0 a4,4 0 0 1 -4,4 h0 a4,4 0 0 1 -4,-4 v0 a4,4 0 0 1 4,-4"/><path x="0" y="192" width="8" height="8" fill="rgb(55 55 55)" d="M4,192 h0 a4,4 0 0 1 4,4 v0 a4,4 0 0 1 -4,4 h0 a4,4 0 0 1 -4,-4 v0 a4,4 0 0 1 4,-4"/><path x="32" y="192" width="8" height="8" fill="rgb(55 55 55)" d="M36,192 h0 a4,4 0 0 1 4,4 v0 a4,4 0 0 1 -4,4 h0 a4,4 0 0 1 -4,-4 v0 a4,4 0 0 1 4,-4"/><path x="64" y="192" width="8" height="8" fill="rgb(55 55 55)" d="M68,192 h0 a4,4 0 0 1 4,4 v0 a4,4 0 0 1 -4,4 h0 a4,4 0 0 1 -4,-4 v0 a4,4 0 0 1 4,-4"/><path x="96" y="192" width="8" height="8" fill="rgb(55 55 55)" d="M100,192 h0 a4,4 0 0 1 4,4 v0 a4,4 0 0 1 -4,4 h0 a4,4 0 0 1 -4,-4 v0 a4,4 0 0 1 4,-4"/><path x="128" y="192" width="8" height="8" fill="rgb(55 55 55)" d="M132,192 h0 a4,4 0 0 1 4,4 v0 a4,4 0 0 1 -4,4 h0 a4,4 0 0 1 -4,-4 v0 a4,4 0 0 1 4,-4"/><path x="160" y="192" width="8" height="8" fill="rgb(55 55 55)" d="M164,192 h0 a4,4 0 0 1 4,4 v0 a4,4 0 0 1 -4,4 h0 a4,4 0 0 1 -4,-4 v0 a4,4 0 0 1 4,-4"/><path x="192" y="192" width="8" height="8" fill="rgb(55 55 55)" d="M196,192 h0 a4,4 0 0 1 4,4 v0 a4,4 0 0 1 -4,4 h0 a4,4 0 0 1 -4,-4 v0 a4,4 0 0 1 4,-4"/><path x="224" y="192" width="8" height="8" fill="rgb(55 55 55)" d="M228,192 h0 a4,4 0 0 1 4,4 v0 a4,4 0 0 1 -4,4 h0 a4,4 0 0 1 -4,-4 v0 a4,4 0 0 1 4,-4"/><path x="256" y="192" width="8" height="8" fill="rgb(55 55 55)" d="M260,192 h0 a4,4 0 0 1 4,4 v0 a4,4 0 0 1 -4,4 h0 a4,4 0 0 1 -4,-4 v0 a4,4 0 0 1 4,-4"/><path x="288" y="192" width="8" height="8" fill="rgb(55 55 55)" d="M292,192 h0 a4,4 0 0 1 4,4 v0 a4,4 0 0 1 -4,4 h0 a4,4 0 0 1 -4,-4 v0 a4,4 0 0 1 4,-4"/><path x="320" y="192" width="8" height="8" fill="rgb(55 55 55)" d="M324,192 h0 a4,4 0 0 1 4,4 v0 a4,4 0 0 1 -4,4 h0 a4,4 0 0 1 -4,-4 v0 a4,4 0 0 1 4,-4"/><path x="352" y="192" width="8" height="8" fill="rgb(55 55 55)" d="M356,192 h0 a4,4 0 0 1 4,4 v0 a4,4 0 0 1 -4,4 h0 a4,4 0 0 1 -4,-4 v0 a4,4 0 0 1 4,-4"/><path x="384" y="192" width="8" height="8" fill="rgb(55 55 55)" d="M388,192 h0 a4,4 0 0 1 4,4 v0 a4,4 0 0 1 -4,4 h0 a4,4 0 0 1 -4,-4 v0 a4,4 0 0 1 4,-4"/><path x="0" y="224" width="8" height="8" fill="rgb(55 55 55)" d="M4,224 h0 a4,4 0 0 1 4,4 v0 a4,4 0 0 1 -4,4 h0 a4,4 0 0 1 -4,-4 v0 a4,4 0 0 1 4,-4"/><path x="32" y="224" width="8" height="8" fill="rgb(55 55 55)" d="M36,224 h0 a4,4 0 0 1 4,4 v0 a4,4 0 0 1 -4,4 h0 a4,4 0 0 1 -4,-4 v0 a4,4 0 0 1 4,-4"/><path x="64" y="224" width="8" height="8" fill="rgb(55 55 55)" d="M68,224 h0 a4,4 0 0 1 4,4 v0 a4,4 0 0 1 -4,4 h0 a4,4 0 0 1 -4,-4 v0 a4,4 0 0 1 4,-4"/><path x="96" y="224" width="8" height="8" fill="rgb(55 55 55)" d="M100,224 h0 a4,4 0 0 1 4,4 v0 a4,4 0 0 1 -4,4 h0 a4,4 0 0 1 -4,-4 v0 a4,4 0 0 1 4,-4"/><path x="128" y="224" width="8" height="8" fill="rgb(55 55 55)" d="M132,224 h0 a4,4 0 0 1 4,4 v0 a4,4 0 0 1 -4,4 h0 a4,4 0 0 1 -4,-4 v0 a4,4 0 0 1 4,-4"/><path x="160" y="224" width="8" height="8" fill="rgb(55 55 55)" d="M164,224 h0 a4,4 0 0 1 4,4 v0 a4,4 0 0 1 -4,4 h0 a4,4 0 0 1 -4,-4 v0 a4,4 0 0 1 4,-4"/><path x="192" y="224" width="8" height="8" fill="rgb(55 55 55)" d="M196,224 h0 a4,4 0 0 1 4,4 v0 a4,4 0 0 1 -4,4 h0 a4,4 0 0 1 -4,-4 v0 a4,4 0 0 1 4,-4"/><path x="224" y="224" width="8" height="8" fill="rgb(55 55 55)" d="M228,224 h0 a4,4 0 0 1 4,4 v0 a4,4 0 0 1 -4,4 h0 a4,4 0 0 1 -4,-4 v0 a4,4 0 0 1 4,-4"/><path x="256" y="224" width="8" height="8" fill="rgb(55 55 55)" d="M260,224 h0 a4,4 0 0 1 4,4 v0 a4,4 0 0 1 -4,4 h0 a4,4 0 0 1 -4,-4 v0 a4,4 0 0 1 4,-4"/><path x="288" y="224" width="8" height="8" fill="rgb(55 55 55)" d="M292,224 h0 a4,4 0 0 1 4,4 v0 a4,4 0 0 1 -4,4 h0 a4,4 0 0 1 -4,-4 v0 a4,4 0 0 1 4,-4"/><path x="320" y="224" width="8" height="8" fill="rgb(55 55 55)" d="M324,224 h0 a4,4 0 0 1 4,4 v0 a4,4 0 0 1 -4,4 h0 a4,4 0 0 1 -4,-4 v0 a4,4 0 0 1 4,-4"/><path x="352" y="224" width="8" height="8" fill="rgb(55 55 55)" d="M356,224 h0 a4,4 0 0 1 4,4 v0 a4,4 0 0 1 -4,4 h0 a4,4 0 0 1 -4,-4 v0 a4,4 0 0 1 4,-4"/><path x="384" y="224" width="8" height="8" fill="rgb(55 55 55)" d="M388,224 h0 a4,4 0 0 1 4,4 v0 a4,4 0 0 1 -4,4 h0 a4,4 0 0 1 -4,-4 v0 a4,4 0 0 1 4,-4"/><path x="0" y="256" width="8" height="8" fill="rgb(55 55 55)" d="M4,256 h0 a4,4 0 0 1 4,4 v0 a4,4 0 0 1 -4,4 h0 a4,4 0 0 1 -4,-4 v0 a4,4 0 0 1 4,-4"/><path x="32" y="256" width="8" height="8" fill="rgb(55 55 55)" d="M36,256 h0 a4,4 0 0 1 4,4 v0 a4,4 0 0 1 -4,4 h0 a4,4 0 0 1 -4,-4 v0 a4,4 0 0 1 4,-4"/><path x="64" y="256" width="8" height="8" fill="rgb(55 55 55)" d="M68,256 h0 a4,4 0 0 1 4,4 v0 a4,4 0 0 1 -4,4 h0 a4,4 0 0 1 -4,-4 v0 a4,4 0 0 1 4,-4"/><path x="96" y="256" width="8" height="8" fill="rgb(55 55 55)" d="M100,256 h0 a4,4 0 0 1 4,4 v0 a4,4 0 0 1 -4,4 h0 a4,4 0 0 1 -4,-4 v0 a4,4 0 0 1 4,-4"/><path x="128" y="256" width="8" height="8" fill="rgb(55 55 55)" d="M132,256 h0 a4,4 0 0 1 4,4 v0 a4,4 0 0 1 -4,4 h0 a4,4 0 0 1 -4,-4 v0 a4,4 0 0 1 4,-4"/><path x="160" y="256" width="8" height="8" fill="rgb(55 55 55)" d="M164,256 h0 a4,4 0 0 1 4,4 v0 a4,4 0 0 1 -4,4 h0 a4,4 0 0 1 -4,-4 v0 a4,4 0 0 1 4,-4"/><path x="192" y="256" width="8" height="8" fill="rgb(55 55 55)" d="M196,256 h0 a4,4 0 0 1 4,4 v0 a4,4 0 0 1 -4,4 h0 a4,4 0 0 1 -4,-4 v0 a4,4 0 0 1 4,-4"/><path x="224" y="256" width="8" height="8" fill="rgb(55 55 55)" d="M228,256 h0 a4,4 0 0 1 4,4 v0 a4,4 0 0 1 -4,4 h0 a4,4 0 0 1 -4,-4 v0 a4,4 0 0 1 4,-4"/><path x="256" y="256" width="8" height="8" fill="rgb(55 55 55)" d="M260,256 h0 a4,4 0 0 1 4,4 v0 a4,4 0 0 1 -4,4 h0 a4,4 0 0 1 -4,-4 v0 a4,4 0 0 1 4,-4"/><path x="288" y="256" width="8" height="8" fill="rgb(55 55 55)" d="M292,256 h0 a4,4 0 0 1 4,4 v0 a4,4 0 0 1 -4,4 h0 a4,4 0 0 1 -4,-4 v0 a4,4 0 0 1 4,-4"/><path x="320" y="256" width="8" height="8" fill="rgb(55 55 55)" d="M324,256 h0 a4,4 0 0 1 4,4 v0 a4,4 0 0 1 -4,4 h0 a4,4 0 0 1 -4,-4 v0 a4,4 0 0 1 4,-4"/><path x="352" y="256" width="8" height="8" fill="rgb(55 55 55)" d="M356,256 h0 a4,4 0 0 1 4,4 v0 a4,4 0 0 1 -4,4 h0 a4,4 0 0 1 -4,-4 v0 a4,4 0 0 1 4,-4"/><path x="384" y="256" width="8" height="8" fill="rgb(55 55 55)" d="M388,256 h0 a4,4 0 0 1 4,4 v0 a4,4 0 0 1 -4,4 h0 a4,4 0 0 1 -4,-4 v0 a4,4 0 0 1 4,-4"/><path x="0" y="288" width="8" height="8" fill="rgb(55 55 55)" d="M4,288 h0 a4,4 0 0 1 4,4 v0 a4,4 0 0 1 -4,4 h0 a4,4 0 0 1 -4,-4 v0 a4,4 0 0 1 4,-4"/><path x="32" y="288" width="8" height="8" fill="rgb(55 55 55)" d="M36,288 h0 a4,4 0 0 1 4,4 v0 a4,4 0 0 1 -4,4 h0 a4,4 0 0 1 -4,-4 v0 a4,4 0 0 1 4,-4"/><path x="64" y="288" width="8" height="8" fill="rgb(55 55 55)" d="M68,288 h0 a4,4 0 0 1 4,4 v0 a4,4 0 0 1 -4,4 h0 a4,4 0 0 1 -4,-4 v0 a4,4 0 0 1 4,-4"/><path x="96" y="288" width="8" height="8" fill="rgb(55 55 55)" d="M100,288 h0 a4,4 0 0 1 4,4 v0 a4,4 0 0 1 -4,4 h0 a4,4 0 0 1 -4,-4 v0 a4,4 0 0 1 4,-4"/><path x="128" y="288" width="8" height="8" fill="rgb(55 55 55)" d="M132,288 h0 a4,4 0 0 1 4,4 v0 a4,4 0 0 1 -4,4 h0 a4,4 0 0 1 -4,-4 v0 a4,4 0 0 1 4,-4"/><path x="160" y="288" width="8" height="8" fill="rgb(55 55 55)" d="M164,288 h0 a4,4 0 0 1 4,4 v0 a4,4 0 0 1 -4,4 h0 a4,4 0 0 1 -4,-4 v0 a4,4 0 0 1 4,-4"/><path x="192" y="288" width="8" height="8" fill="rgb(55 55 55)" d="M196,288 h0 a4,4 0 0 1 4,4 v0 a4,4 0 0 1 -4,4 h0 a4,4 0 0 1 -4,-4 v0 a4,4 0 0 1 4,-4"/><path x="224" y="288" width="8" height="8" fill="rgb(55 55 55)" d="M228,288 h0 a4,4 0 0 1 4,4 v0 a4,4 0 0 1 -4,4 h0 a4,4 0 0 1 -4,-4 v0 a4,4 0 0 1 4,-4"/><path x="256" y="288" width="8" height="8" fill="rgb(55 55 55)" d="M260,288 h0 a4,4 0 0 1 4,4 v0 a4,4 0 0 1 -4,4 h0 a4,4 0 0 1 -4,-4 v0 a4,4 0 0 1 4,-4"/><path x="288" y="288" width="8" height="8" fill="rgb(55 55 55)" d="M292,288 h0 a4,4 0 0 1 4,4 v0 a4,4 0 0 1 -4,4 h0 a4,4 0 0 1 -4,-4 v0 a4,4 0 0 1 4,-4"/><path x="320" y="288" width="8" height="8" fill="rgb(55 55 55)" d="M324,288 h0 a4,4 0 0 1 4,4 v0 a4,4 0 0 1 -4,4 h0 a4,4 0 0 1 -4,-4 v0 a4,4 0 0 1 4,-4"/><path x="352" y="288" width="8" height="8" fill="rgb(55 55 55)" d="M356,288 h0 a4,4 0 0 1 4,4 v0 a4,4 0 0 1 -4,4 h0 a4,4 0 0 1 -4,-4 v0 a4,4 0 0 1 4,-4"/><path x="384" y="288" width="8" height="8" fill="rgb(55 55 55)" d="M388,288 h0 a4,4 0 0 1 4,4 v0 a4,4 0 0 1 -4,4 h0 a4,4 0 0 1 -4,-4 v0 a4,4 0 0 1 4,-4"/><path x="0" y="320" width="8" height="8" fill="rgb(55 55 55)" d="M4,320 h0 a4,4 0 0 1 4,4 v0 a4,4 0 0 1 -4,4 h0 a4,4 0 0 1 -4,-4 v0 a4,4 0 0 1 4,-4"/><path x="32" y="320" width="8" height="8" fill="rgb(55 55 55)" d="M36,320 h0 a4,4 0 0 1 4,4 v0 a4,4 0 0 1 -4,4 h0 a4,4 0 0 1 -4,-4 v0 a4,4 0 0 1 4,-4"/><path x="64" y="320" width="8" height="8" fill="rgb(55 55 55)" d="M68,320 h0 a4,4 0 0 1 4,4 v0 a4,4 0 0 1 -4,4 h0 a4,4 0 0 1 -4,-4 v0 a4,4 0 0 1 4,-4"/><path x="96" y="320" width="8" height="8" fill="rgb(55 55 55)" d="M100,320 h0 a4,4 0 0 1 4,4 v0 a4,4 0 0 1 -4,4 h0 a4,4 0 0 1 -4,-4 v0 a4,4 0 0 1 4,-4"/><path x="128" y="320" width="8" height="8" fill="rgb(55 55 55)" d="M132,320 h0 a4,4 0 0 1 4,4 v0 a4,4 0 0 1 -4,4 h0 a4,4 0 0 1 -4,-4 v0 a4,4 0 0 1 4,-4"/><path x="160" y="320" width="8" height="8" fill="rgb(55 55 55)" d="M164,320 h0 a4,4 0 0 1 4,4 v0 a4,4 0 0 1 -4,4 h0 a4,4 0 0 1 -4,-4 v0 a4,4 0 0 1 4,-4"/><path x="192" y="320" width="8" height="8" fill="rgb(55 55 55)" d="M196,320 h0 a4,4 0 0 1 4,4 v0 a4,4 0 0 1 -4,4 h0 a4,4 0 0 1 -4,-4 v0 a4,4 0 0 1 4,-4"/><path x="224" y="320" width="8" height="8" fill="rgb(55 55 55)" d="M228,320 h0 a4,4 0 0 1 4,4 v0 a4,4 0 0 1 -4,4 h0 a4,4 0 0 1 -4,-4 v0 a4,4 0 0 1 4,-4"/><path x="256" y="320" width="8" height="8" fill="rgb(55 55 55)" d="M260,320 h0 a4,4 0 0 1 4,4 v0 a4,4 0 0 1 -4,4 h0 a4,4 0 0 1 -4,-4 v0 a4,4 0 0 1 4,-4"/><path x="288" y="320" width="8" height="8" fill="rgb(55 55 55)" d="M292,320 h0 a4,4 0 0 1 4,4 v0 a4,4 0 0 1 -4,4 h0 a4,4 0 0 1 -4,-4 v0 a4,4 0 0 1 4,-4"/><path x="320" y="320" width="8" height="8" fill="rgb(55 55 55)" d="M324,320 h0 a4,4 0 0 1 4,4 v0 a4,4 0 0 1 -4,4 h0 a4,4 0 0 1 -4,-4 v0 a4,4 0 0 1 4,-4"/><path x="352" y="320" width="8" height="8" fill="rgb(55 55 55)" d="M356,320 h0 a4,4 0 0 1 4,4 v0 a4,4 0 0 1 -4,4 h0 a4,4 0 0 1 -4,-4 v0 a4,4 0 0 1 4,-4"/><path x="384" y="320" width="8" height="8" fill="rgb(55 55 55)" d="M388,320 h0 a4,4 0 0 1 4,4 v0 a4,4 0 0 1 -4,4 h0 a4,4 0 0 1 -4,-4 v0 a4,4 0 0 1 4,-4"/><path x="0" y="352" width="8" height="8" fill="rgb(55 55 55)" d="M4,352 h0 a4,4 0 0 1 4,4 v0 a4,4 0 0 1 -4,4 h0 a4,4 0 0 1 -4,-4 v0 a4,4 0 0 1 4,-4"/><path x="32" y="352" width="8" height="8" fill="rgb(55 55 55)" d="M36,352 h0 a4,4 0 0 1 4,4 v0 a4,4 0 0 1 -4,4 h0 a4,4 0 0 1 -4,-4 v0 a4,4 0 0 1 4,-4"/><path x="64" y="352" width="8" height="8" fill="rgb(55 55 55)" d="M68,352 h0 a4,4 0 0 1 4,4 v0 a4,4 0 0 1 -4,4 h0 a4,4 0 0 1 -4,-4 v0 a4,4 0 0 1 4,-4"/><path x="96" y="352" width="8" height="8" fill="rgb(55 55 55)" d="M100,352 h0 a4,4 0 0 1 4,4 v0 a4,4 0 0 1 -4,4 h0 a4,4 0 0 1 -4,-4 v0 a4,4 0 0 1 4,-4"/><path x="128" y="352" width="8" height="8" fill="rgb(55 55 55)" d="M132,352 h0 a4,4 0 0 1 4,4 v0 a4,4 0 0 1 -4,4 h0 a4,4 0 0 1 -4,-4 v0 a4,4 0 0 1 4,-4"/><path x="160" y="352" width="8" height="8" fill="rgb(55 55 55)" d="M164,352 h0 a4,4 0 0 1 4,4 v0 a4,4 0 0 1 -4,4 h0 a4,4 0 0 1 -4,-4 v0 a4,4 0 0 1 4,-4"/><path x="192" y="352" width="8" height="8" fill="rgb(55 55 55)" d="M196,352 h0 a4,4 0 0 1 4,4 v0 a4,4 0 0 1 -4,4 h0 a4,4 0 0 1 -4,-4 v0 a4,4 0 0 1 4,-4"/><path x="224" y="352" width="8" height="8" fill="rgb(55 55 55)" d="M228,352 h0 a4,4 0 0 1 4,4 v0 a4,4 0 0 1 -4,4 h0 a4,4 0 0 1 -4,-4 v0 a4,4 0 0 1 4,-4"/><path x="256" y="352" width="8" height="8" fill="rgb(55 55 55)" d="M260,352 h0 a4,4 0 0 1 4,4 v0 a4,4 0 0 1 -4,4 h0 a4,4 0 0 1 -4,-4 v0 a4,4 0 0 1 4,-4"/><path x="288" y="352" width="8" height="8" fill="rgb(55 55 55)" d="M292,352 h0 a4,4 0 0 1 4,4 v0 a4,4 0 0 1 -4,4 h0 a4,4 0 0 1 -4,-4 v0 a4,4 0 0 1 4,-4"/><path x="320" y="352" width="8" height="8" fill="rgb(55 55 55)" d="M324,352 h0 a4,4 0 0 1 4,4 v0 a4,4 0 0 1 -4,4 h0 a4,4 0 0 1 -4,-4 v0 a4,4 0 0 1 4,-4"/><path x="352" y="352" width="8" height="8" fill="rgb(55 55 55)" d="M356,352 h0 a4,4 0 0 1 4,4 v0 a4,4 0 0 1 -4,4 h0 a4,4 0 0 1 -4,-4 v0 a4,4 0 0 1 4,-4"/><path x="384" y="352" width="8" height="8" fill="rgb(55 55 55)" d="M388,352 h0 a4,4 0 0 1 4,4 v0 a4,4 0 0 1 -4,4 h0 a4,4 0 0 1 -4,-4 v0 a4,4 0 0 1 4,-4"/><path x="0" y="384" width="8" height="8" fill="rgb(55 55 55)" d="M4,384 h0 a4,4 0 0 1 4,4 v0 a4,4 0 0 1 -4,4 h0 a4,4 0 0 1 -4,-4 v0 a4,4 0 0 1 4,-4"/><path x="32" y="384" width="8" height="8" fill="rgb(55 55 55)" d="M36,384 h0 a4,4 0 0 1 4,4 v0 a4,4 0 0 1 -4,4 h0 a4,4 0 0 1 -4,-4 v0 a4,4 0 0 1 4,-4"/><path x="64" y="384" width="8" height="8" fill="rgb(55 55 55)" d="M68,384 h0 a4,4 0 0 1 4,4 v0 a4,4 0 0 1 -4,4 h0 a4,4 0 0 1 -4,-4 v0 a4,4 0 0 1 4,-4"/><path x="96" y="384" width="8" height="8" fill="rgb(55 55 55)" d="M100,384 h0 a4,4 0 0 1 4,4 v0 a4,4 0 0 1 -4,4 h0 a4,4 0 0 1 -4,-4 v0 a4,4 0 0 1 4,-4"/><path x="128" y="384" width="8" height="8" fill="rgb(55 55 55)" d="M132,384 h0 a4,4 0 0 1 4,4 v0 a4,4 0 0 1 -4,4 h0 a4,4 0 0 1 -4,-4 v0 a4,4 0 0 1 4,-4"/><path x="160" y="384" width="8" height="8" fill="rgb(55 55 55)" d="M164,384 h0 a4,4 0 0 1 4,4 v0 a4,4 0 0 1 -4,4 h0 a4,4 0 0 1 -4,-4 v0 a4,4 0 0 1 4,-4"/><path x="192" y="384" width="8" height="8" fill="rgb(55 55 55)" d="M196,384 h0 a4,4 0 0 1 4,4 v0 a4,4 0 0 1 -4,4 h0 a4,4 0 0 1 -4,-4 v0 a4,4 0 0 1 4,-4"/><path x="224" y="384" width="8" height="8" fill="rgb(55 55 55)" d="M228,384 h0 a4,4 0 0 1 4,4 v0 a4,4 0 0 1 -4,4 h0 a4,4 0 0 1 -4,-4 v0 a4,4 0 0 1 4,-4"/><path x="256" y="384" width="8" height="8" fill="rgb(55 55 55)" d="M260,384 h0 a4,4 0 0 1 4,4 v0 a4,4 0 0 1 -4,4 h0 a4,4 0 0 1 -4,-4 v0 a4,4 0 0 1 4,-4"/><path x="288" y="384" width="8" height="8" fill="rgb(55 55 55)" d="M292,384 h0 a4,4 0 0 1 4,4 v0 a4,4 0 0 1 -4,4 h0 a4,4 0 0 1 -4,-4 v0 a4,4 0 0 1 4,-4"/><path x="320" y="384" width="8" height="8" fill="rgb(55 55 55)" d="M324,384 h0 a4,4 0 0 1 4,4 v0 a4,4 0 0 1 -4,4 h0 a4,4 0 0 1 -4,-4 v0 a4,4 0 0 1 4,-4"/><path x="352" y="384" width="8" height="8" fill="rgb(55 55 55)" d="M356,384 h0 a4,4 0 0 1 4,4 v0 a4,4 0 0 1 -4,4 h0 a4,4 0 0 1 -4,-4 v0 a4,4 0 0 1 4,-4"/><path x="384" y="384" width="8" height="8" fill="rgb(55 55 55)" d="M388,384 h0 a4,4 0 0 1 4,4 v0 a4,4 0 0 1 -4,4 h0 a4,4 0 0 1 -4,-4 v0 a4,4 0 0 1 4,-4"/><path x="0" y="416" width="8" height="8" fill="rgb(55 55 55)" d="M4,416 h0 a4,4 0 0 1 4,4 v0 a4,4 0 0 1 -4,4 h0 a4,4 0 0 1 -4,-4 v0 a4,4 0 0 1 4,-4"/><path x="32" y="416" width="8" height="8" fill="rgb(55 55 55)" d="M36,416 h0 a4,4 0 0 1 4,4 v0 a4,4 0 0 1 -4,4 h0 a4,4 0 0 1 -4,-4 v0 a4,4 0 0 1 4,-4"/><path x="64" y="416" width="8" height="8" fill="rgb(55 55 55)" d="M68,416 h0 a4,4 0 0 1 4,4 v0 a4,4 0 0 1 -4,4 h0 a4,4 0 0 1 -4,-4 v0 a4,4 0 0 1 4,-4"/><path x="96" y="416" width="8" height="8" fill="rgb(55 55 55)" d="M100,416 h0 a4,4 0 0 1 4,4 v0 a4,4 0 0 1 -4,4 h0 a4,4 0 0 1 -4,-4 v0 a4,4 0 0 1 4,-4"/><path x="128" y="416" width="8" height="8" fill="rgb(55 55 55)" d="M132,416 h0 a4,4 0 0 1 4,4 v0 a4,4 0 0 1 -4,4 h0 a4,4 0 0 1 -4,-4 v0 a4,4 0 0 1 4,-4"/><path x="160" y="416" width="8" height="8" fill="rgb(55 55 55)" d="M164,416 h0 a4,4 0 0 1 4,4 v0 a4,4 0 0 1 -4,4 h0 a4,4 0 0 1 -4,-4 v0 a4,4 0 0 1 4,-4"/><path x="192" y="416" width="8" height="8" fill="rgb(55 55 55)" d="M196,416 h0 a4,4 0 0 1 4,4 v0 a4,4 0 0 1 -4,4 h0 a4,4 0 0 1 -4,-4 v0 a4,4 0 0 1 4,-4"/><path x="224" y="416" width="8" height="8" fill="rgb(55 55 55)" d="M228,416 h0 a4,4 0 0 1 4,4 v0 a4,4 0 0 1 -4,4 h0 a4,4 0 0 1 -4,-4 v0 a4,4 0 0 1 4,-4"/><path x="256" y="416" width="8" height="8" fill="rgb(55 55 55)" d="M260,416 h0 a4,4 0 0 1 4,4 v0 a4,4 0 0 1 -4,4 h0 a4,4 0 0 1 -4,-4 v0 a4,4 0 0 1 4,-4"/><path x="288" y="416" width="8" height="8" fill="rgb(55 55 55)" d="M292,416 h0 a4,4 0 0 1 4,4 v0 a4,4 0 0 1 -4,4 h0 a4,4 0 0 1 -4,-4 v0 a4,4 0 0 1 4,-4"/><path x="320" y="416" width="8" height="8" fill="rgb(55 55 55)" d="M324,416 h0 a4,4 0 0 1 4,4 v0 a4,4 0 0 1 -4,4 h0 a4,4 0 0 1 -4,-4 v0 a4,4 0 0 1 4,-4"/><path x="352" y="416" width="8" height="8" fill="rgb(55 55 55)" d="M356,416 h0 a4,4 0 0 1 4,4 v0 a4,4 0 0 1 -4,4 h0 a4,4 0 0 1 -4,-4 v0 a4,4 0 0 1 4,-4"/><path x="384" y="416" width="8" height="8" fill="rgb(55 55 55)" d="M388,416 h0 a4,4 0 0 1 4,4 v0 a4,4 0 0 1 -4,4 h0 a4,4 0 0 1 -4,-4 v0 a4,4 0 0 1 4,-4"/><path x="0" y="448" width="8" height="8" fill="rgb(55 55 55)" d="M4,448 h0 a4,4 0 0 1 4,4 v0 a4,4 0 0 1 -4,4 h0 a4,4 0 0 1 -4,-4 v0 a4,4 0 0 1 4,-4"/><path x="32" y="448" width="8" height="8" fill="rgb(55 55 55)" d="M36,448 h0 a4,4 0 0 1 4,4 v0 a4,4 0 0 1 -4,4 h0 a4,4 0 0 1 -4,-4 v0 a4,4 0 0 1 4,-4"/><path x="64" y="448" width="8" height="8" fill="rgb(55 55 55)" d="M68,448 h0 a4,4 0 0 1 4,4 v0 a4,4 0 0 1 -4,4 h0 a4,4 0 0 1 -4,-4 v0 a4,4 0 0 1 4,-4"/><path x="96" y="448" width="8" height="8" fill="rgb(55 55 55)" d="M100,448 h0 a4,4 0 0 1 4,4 v0 a4,4 0 0 1 -4,4 h0 a4,4 0 0 1 -4,-4 v0 a4,4 0 0 1 4,-4"/><path x="128" y="448" width="8" height="8" fill="rgb(55 55 55)" d="M132,448 h0 a4,4 0 0 1 4,4 v0 a4,4 0 0 1 -4,4 h0 a4,4 0 0 1 -4,-4 v0 a4,4 0 0 1 4,-4"/><path x="160" y="448" width="8" height="8" fill="rgb(55 55 55)" d="M164,448 h0 a4,4 0 0 1 4,4 v0 a4,4 0 0 1 -4,4 h0 a4,4 0 0 1 -4,-4 v0 a4,4 0 0 1 4,-4"/><path x="192" y="448" width="8" height="8" fill="rgb(55 55 55)" d="M196,448 h0 a4,4 0 0 1 4,4 v0 a4,4 0 0 1 -4,4 h0 a4,4 0 0 1 -4,-4 v0 a4,4 0 0 1 4,-4"/><path x="224" y="448" width="8" height="8" fill="rgb(55 55 55)" d="M228,448 h0 a4,4 0 0 1 4,4 v0 a4,4 0 0 1 -4,4 h0 a4,4 0 0 1 -4,-4 v0 a4,4 0 0 1 4,-4"/><path x="256" y="448" width="8" height="8" fill="rgb(55 55 55)" d="M260,448 h0 a4,4 0 0 1 4,4 v0 a4,4 0 0 1 -4,4 h0 a4,4 0 0 1 -4,-4 v0 a4,4 0 0 1 4,-4"/><path x="288" y="448" width="8" height="8" fill="rgb(55 55 55)" d="M292,448 h0 a4,4 0 0 1 4,4 v0 a4,4 0 0 1 -4,4 h0 a4,4 0 0 1 -4,-4 v0 a4,4 0 0 1 4,-4"/><path x="320" y="448" width="8" height="8" fill="rgb(55 55 55)" d="M324,448 h0 a4,4 0 0 1 4,4 v0 a4,4 0 0 1 -4,4 h0 a4,4 0 0 1 -4,-4 v0 a4,4 0 0 1 4,-4"/><path x="352" y="448" width="8" height="8" fill="rgb(55 55 55)" d="M356,448 h0 a4,4 0 0 1 4,4 v0 a4,4 0 0 1 -4,4 h0 a4,4 0 0 1 -4,-4 v0 a4,4 0 0 1 4,-4"/><path x="384" y="448" width="8" height="8" fill="rgb(55 55 55)" d="M388,448 h0 a4,4 0 0 1 4,4 v0 a4,4 0 0 1 -4,4 h0 a4,4 0 0 1 -4,-4 v0 a4,4 0 0 1 4,-4"/><path x="0" y="480" width="8" height="8" fill="rgb(55 55 55)" d="M4,480 h0 a4,4 0 0 1 4,4 v0 a4,4 0 0 1 -4,4 h0 a4,4 0 0 1 -4,-4 v0 a4,4 0 0 1 4,-4"/><path x="32" y="480" width="8" height="8" fill="rgb(55 55 55)" d="M36,480 h0 a4,4 0 0 1 4,4 v0 a4,4 0 0 1 -4,4 h0 a4,4 0 0 1 -4,-4 v0 a4,4 0 0 1 4,-4"/><path x="64" y="480" width="8" height="8" fill="rgb(55 55 55)" d="M68,480 h0 a4,4 0 0 1 4,4 v0 a4,4 0 0 1 -4,4 h0 a4,4 0 0 1 -4,-4 v0 a4,4 0 0 1 4,-4"/><path x="96" y="480" width="8" height="8" fill="rgb(55 55 55)" d="M100,480 h0 a4,4 0 0 1 4,4 v0 a4,4 0 0 1 -4,4 h0 a4,4 0 0 1 -4,-4 v0 a4,4 0 0 1 4,-4"/><path x="128" y="480" width="8" height="8" fill="rgb(55 55 55)" d="M132,480 h0 a4,4 0 0 1 4,4 v0 a4,4 0 0 1 -4,4 h0 a4,4 0 0 1 -4,-4 v0 a4,4 0 0 1 4,-4"/><path x="160" y="480" width="8" height="8" fill="rgb(55 55 55)" d="M164,480 h0 a4,4 0 0 1 4,4 v0 a4,4 0 0 1 -4,4 h0 a4,4 0 0 1 -4,-4 v0 a4,4 0 0 1 4,-4"/><path x="192" y="480" width="8" height="8" fill="rgb(55 55 55)" d="M196,480 h0 a4,4 0 0 1 4,4 v0 a4,4 0 0 1 -4,4 h0 a4,4 0 0 1 -4,-4 v0 a4,4 0 0 1 4,-4"/><path x="224" y="480" width="8" height="8" fill="rgb(55 55 55)" d="M228,480 h0 a4,4 0 0 1 4,4 v0 a4,4 0 0 1 -4,4 h0 a4,4 0 0 1 -4,-4 v0 a4,4 0 0 1 4,-4"/><path x="256" y="480" width="8" height="8" fill="rgb(55 55 55)" d="M260,480 h0 a4,4 0 0 1 4,4 v0 a4,4 0 0 1 -4,4 h0 a4,4 0 0 1 -4,-4 v0 a4,4 0 0 1 4,-4"/><path x="288" y="480" width="8" height="8" fill="rgb(55 55 55)" d="M292,480 h0 a4,4 0 0 1 4,4 v0 a4,4 0 0 1 -4,4 h0 a4,4 0 0 1 -4,-4 v0 a4,4 0 0 1 4,-4"/><path x="320" y="480" width="8" height="8" fill="rgb(55 55 55)" d="M324,480 h0 a4,4 0 0 1 4,4 v0 a4,4 0 0 1 -4,4 h0 a4,4 0 0 1 -4,-4 v0 a4,4 0 0 1 4,-4"/><path x="352" y="480" width="8" height="8" fill="rgb(55 55 55)" d="M356,480 h0 a4,4 0 0 1 4,4 v0 a4,4 0 0 1 -4,4 h0 a4,4 0 0 1 -4,-4 v0 a4,4 0 0 1 4,-4"/><path x="384" y="480" width="8" height="8" fill="rgb(55 55 55)" d="M388,480 h0 a4,4 0 0 1 4,4 v0 a4,4 0 0 1 -4,4 h0 a4,4 0 0 1 -4,-4 v0 a4,4 0 0 1 4,-4"/><path x="0" y="512" width="8" height="8" fill="rgb(55 55 55)" d="M4,512 h0 a4,4 0 0 1 4,4 v0 a4,4 0 0 1 -4,4 h0 a4,4 0 0 1 -4,-4 v0 a4,4 0 0 1 4,-4"/><path x="32" y="512" width="8" height="8" fill="rgb(55 55 55)" d="M36,512 h0 a4,4 0 0 1 4,4 v0 a4,4 0 0 1 -4,4 h0 a4,4 0 0 1 -4,-4 v0 a4,4 0 0 1 4,-4"/><path x="64" y="512" width="8" height="8" fill="rgb(55 55 55)" d="M68,512 h0 a4,4 0 0 1 4,4 v0 a4,4 0 0 1 -4,4 h0 a4,4 0 0 1 -4,-4 v0 a4,4 0 0 1 4,-4"/><path x="96" y="512" width="8" height="8" fill="rgb(55 55 55)" d="M100,512 h0 a4,4 0 0 1 4,4 v0 a4,4 0 0 1 -4,4 h0 a4,4 0 0 1 -4,-4 v0 a4,4 0 0 1 4,-4"/><path x="128" y="512" width="8" height="8" fill="rgb(55 55 55)" d="M132,512 h0 a4,4 0 0 1 4,4 v0 a4,4 0 0 1 -4,4 h0 a4,4 0 0 1 -4,-4 v0 a4,4 0 0 1 4,-4"/><path x="160" y="512" width="8" height="8" fill="rgb(55 55 55)" d="M164,512 h0 a4,4 0 0 1 4,4 v0 a4,4 0 0 1 -4,4 h0 a4,4 0 0 1 -4,-4 v0 a4,4 0 0 1 4,-4"/><path x="192" y="512" width="8" height="8" fill="rgb(55 55 55)" d="M196,512 h0 a4,4 0 0 1 4,4 v0 a4,4 0 0 1 -4,4 h0 a4,4 0 0 1 -4,-4 v0 a4,4 0 0 1 4,-4"/><path x="224" y="512" width="8" height="8" fill="rgb(55 55 55)" d="M228,512 h0 a4,4 0 0 1 4,4 v0 a4,4 0 0 1 -4,4 h0 a4,4 0 0 1 -4,-4 v0 a4,4 0 0 1 4,-4"/><path x="256" y="512" width="8" height="8" fill="rgb(55 55 55)" d="M260,512 h0 a4,4 0 0 1 4,4 v0 a4,4 0 0 1 -4,4 h0 a4,4 0 0 1 -4,-4 v0 a4,4 0 0 1 4,-4"/><path x="288" y="512" width="8" height="8" fill="rgb(55 55 55)" d="M292,512 h0 a4,4 0 0 1 4,4 v0 a4,4 0 0 1 -4,4 h0 a4,4 0 0 1 -4,-4 v0 a4,4 0 0 1 4,-4"/><path x="320" y="512" width="8" height="8" fill="rgb(55 55 55)" d="M324,512 h0 a4,4 0 0 1 4,4 v0 a4,4 0 0 1 -4,4 h0 a4,4 0 0 1 -4,-4 v0 a4,4 0 0 1 4,-4"/><path x="352" y="512" width="8" height="8" fill="rgb(55 55 55)" d="M356,512 h0 a4,4 0 0 1 4,4 v0 a4,4 0 0 1 -4,4 h0 a4,4 0 0 1 -4,-4 v0 a4,4 0 0 1 4,-4"/><path x="384" y="512" width="8" height="8" fill="rgb(55 55 55)" d="M388,512 h0 a4,4 0 0 1 4,4 v0 a4,4 0 0 1 -4,4 h0 a4,4 0 0 1 -4,-4 v0 a4,4 0 0 1 4,-4"/><path x="0" y="544" width="8" height="8" fill="rgb(55 55 55)" d="M4,544 h0 a4,4 0 0 1 4,4 v0 a4,4 0 0 1 -4,4 h0 a4,4 0 0 1 -4,-4 v0 a4,4 0 0 1 4,-4"/><path x="32" y="544" width="8" height="8" fill="rgb(55 55 55)" d="M36,544 h0 a4,4 0 0 1 4,4 v0 a4,4 0 0 1 -4,4 h0 a4,4 0 0 1 -4,-4 v0 a4,4 0 0 1 4,-4"/><path x="64" y="544" width="8" height="8" fill="rgb(55 55 55)" d="M68,544 h0 a4,4 0 0 1 4,4 v0 a4,4 0 0 1 -4,4 h0 a4,4 0 0 1 -4,-4 v0 a4,4 0 0 1 4,-4"/><path x="96" y="544" width="8" height="8" fill="rgb(55 55 55)" d="M100,544 h0 a4,4 0 0 1 4,4 v0 a4,4 0 0 1 -4,4 h0 a4,4 0 0 1 -4,-4 v0 a4,4 0 0 1 4,-4"/><path x="128" y="544" width="8" height="8" fill="rgb(55 55 55)" d="M132,544 h0 a4,4 0 0 1 4,4 v0 a4,4 0 0 1 -4,4 h0 a4,4 0 0 1 -4,-4 v0 a4,4 0 0 1 4,-4"/><path x="160" y="544" width="8" height="8" fill="rgb(55 55 55)" d="M164,544 h0 a4,4 0 0 1 4,4 v0 a4,4 0 0 1 -4,4 h0 a4,4 0 0 1 -4,-4 v0 a4,4 0 0 1 4,-4"/><path x="192" y="544" width="8" height="8" fill="rgb(55 55 55)" d="M196,544 h0 a4,4 0 0 1 4,4 v0 a4,4 0 0 1 -4,4 h0 a4,4 0 0 1 -4,-4 v0 a4,4 0 0 1 4,-4"/><path x="224" y="544" width="8" height="8" fill="rgb(55 55 55)" d="M228,544 h0 a4,4 0 0 1 4,4 v0 a4,4 0 0 1 -4,4 h0 a4,4 0 0 1 -4,-4 v0 a4,4 0 0 1 4,-4"/><path x="256" y="544" width="8" height="8" fill="rgb(55 55 55)" d="M260,544 h0 a4,4 0 0 1 4,4 v0 a4,4 0 0 1 -4,4 h0 a4,4 0 0 1 -4,-4 v0 a4,4 0 0 1 4,-4"/><path x="288" y="544" width="8" height="8" fill="rgb(55 55 55)" d="M292,544 h0 a4,4 0 0 1 4,4 v0 a4,4 0 0 1 -4,4 h0 a4,4 0 0 1 -4,-4 v0 a4,4 0 0 1 4,-4"/><path x="320" y="544" width="8" height="8" fill="rgb(55 55 55)" d="M324,544 h0 a4,4 0 0 1 4,4 v0 a4,4 0 0 1 -4,4 h0 a4,4 0 0 1 -4,-4 v0 a4,4 0 0 1 4,-4"/><path x="352" y="544" width="8" height="8" fill="rgb(55 55 55)" d="M356,544 h0 a4,4 0 0 1 4,4 v0 a4,4 0 0 1 -4,4 h0 a4,4 0 0 1 -4,-4 v0 a4,4 0 0 1 4,-4"/><path x="384" y="544" width="8" height="8" fill="rgb(55 55 55)" d="M388,544 h0 a4,4 0 0 1 4,4 v0 a4,4 0 0 1 -4,4 h0 a4,4 0 0 1 -4,-4 v0 a4,4 0 0 1 4,-4"/><path x="0" y="576" width="8" height="8" fill="rgb(55 55 55)" d="M4,576 h0 a4,4 0 0 1 4,4 v0 a4,4 0 0 1 -4,4 h0 a4,4 0 0 1 -4,-4 v0 a4,4 0 0 1 4,-4"/><path x="32" y="576" width="8" height="8" fill="rgb(55 55 55)" d="M36,576 h0 a4,4 0 0 1 4,4 v0 a4,4 0 0 1 -4,4 h0 a4,4 0 0 1 -4,-4 v0 a4,4 0 0 1 4,-4"/><path x="64" y="576" width="8" height="8" fill="rgb(55 55 55)" d="M68,576 h0 a4,4 0 0 1 4,4 v0 a4,4 0 0 1 -4,4 h0 a4,4 0 0 1 -4,-4 v0 a4,4 0 0 1 4,-4"/><path x="96" y="576" width="8" height="8" fill="rgb(55 55 55)" d="M100,576 h0 a4,4 0 0 1 4,4 v0 a4,4 0 0 1 -4,4 h0 a4,4 0 0 1 -4,-4 v0 a4,4 0 0 1 4,-4"/><path x="128" y="576" width="8" height="8" fill="rgb(55 55 55)" d="M132,576 h0 a4,4 0 0 1 4,4 v0 a4,4 0 0 1 -4,4 h0 a4,4 0 0 1 -4,-4 v0 a4,4 0 0 1 4,-4"/><path x="160" y="576" width="8" height="8" fill="rgb(55 55 55)" d="M164,576 h0 a4,4 0 0 1 4,4 v0 a4,4 0 0 1 -4,4 h0 a4,4 0 0 1 -4,-4 v0 a4,4 0 0 1 4,-4"/><path x="192" y="576" width="8" height="8" fill="rgb(55 55 55)" d="M196,576 h0 a4,4 0 0 1 4,4 v0 a4,4 0 0 1 -4,4 h0 a4,4 0 0 1 -4,-4 v0 a4,4 0 0 1 4,-4"/><path x="224" y="576" width="8" height="8" fill="rgb(55 55 55)" d="M228,576 h0 a4,4 0 0 1 4,4 v0 a4,4 0 0 1 -4,4 h0 a4,4 0 0 1 -4,-4 v0 a4,4 0 0 1 4,-4"/><path x="256" y="576" width="8" height="8" fill="rgb(55 55 55)" d="M260,576 h0 a4,4 0 0 1 4,4 v0 a4,4 0 0 1 -4,4 h0 a4,4 0 0 1 -4,-4 v0 a4,4 0 0 1 4,-4"/><path x="288" y="576" width="8" height="8" fill="rgb(55 55 55)" d="M292,576 h0 a4,4 0 0 1 4,4 v0 a4,4 0 0 1 -4,4 h0 a4,4 0 0 1 -4,-4 v0 a4,4 0 0 1 4,-4"/><path x="320" y="576" width="8" height="8" fill="rgb(55 55 55)" d="M324,576 h0 a4,4 0 0 1 4,4 v0 a4,4 0 0 1 -4,4 h0 a4,4 0 0 1 -4,-4 v0 a4,4 0 0 1 4,-4"/><path x="352" y="576" width="8" height="8" fill="rgb(55 55 55)" d="M356,576 h0 a4,4 0 0 1 4,4 v0 a4,4 0 0 1 -4,4 h0 a4,4 0 0 1 -4,-4 v0 a4,4 0 0 1 4,-4"/><path x="384" y="576" width="8" height="8" fill="rgb(55 55 55)" d="M388,576 h0 a4,4 0 0 1 4,4 v0 a4,4 0 0 1 -4,4 h0 a4,4 0 0 1 -4,-4 v0 a4,4 0 0 1 4,-4"/><path x="0" y="608" width="8" height="8" fill="rgb(55 55 55)" d="M4,608 h0 a4,4 0 0 1 4,4 v0 a4,4 0 0 1 -4,4 h0 a4,4 0 0 1 -4,-4 v0 a4,4 0 0 1 4,-4"/><path x="32" y="608" width="8" height="8" fill="rgb(55 55 55)" d="M36,608 h0 a4,4 0 0 1 4,4 v0 a4,4 0 0 1 -4,4 h0 a4,4 0 0 1 -4,-4 v0 a4,4 0 0 1 4,-4"/><path x="64" y="608" width="8" height="8" fill="rgb(55 55 55)" d="M68,608 h0 a4,4 0 0 1 4,4 v0 a4,4 0 0 1 -4,4 h0 a4,4 0 0 1 -4,-4 v0 a4,4 0 0 1 4,-4"/><path x="96" y="608" width="8" height="8" fill="rgb(55 55 55)" d="M100,608 h0 a4,4 0 0 1 4,4 v0 a4,4 0 0 1 -4,4 h0 a4,4 0 0 1 -4,-4 v0 a4,4 0 0 1 4,-4"/><path x="128" y="608" width="8" height="8" fill="rgb(55 55 55)" d="M132,608 h0 a4,4 0 0 1 4,4 v0 a4,4 0 0 1 -4,4 h0 a4,4 0 0 1 -4,-4 v0 a4,4 0 0 1 4,-4"/><path x="160" y="608" width="8" height="8" fill="rgb(55 55 55)" d="M164,608 h0 a4,4 0 0 1 4,4 v0 a4,4 0 0 1 -4,4 h0 a4,4 0 0 1 -4,-4 v0 a4,4 0 0 1 4,-4"/><path x="192" y="608" width="8" height="8" fill="rgb(55 55 55)" d="M196,608 h0 a4,4 0 0 1 4,4 v0 a4,4 0 0 1 -4,4 h0 a4,4 0 0 1 -4,-4 v0 a4,4 0 0 1 4,-4"/><path x="224" y="608" width="8" height="8" fill="rgb(55 55 55)" d="M228,608 h0 a4,4 0 0 1 4,4 v0 a4,4 0 0 1 -4,4 h0 a4,4 0 0 1 -4,-4 v0 a4,4 0 0 1 4,-4"/><path x="256" y="608" width="8" height="8" fill="rgb(55 55 55)" d="M260,608 h0 a4,4 0 0 1 4,4 v0 a4,4 0 0 1 -4,4 h0 a4,4 0 0 1 -4,-4 v0 a4,4 0 0 1 4,-4"/><path x="288" y="608" width="8" height="8" fill="rgb(55 55 55)" d="M292,608 h0 a4,4 0 0 1 4,4 v0 a4,4 0 0 1 -4,4 h0 a4,4 0 0 1 -4,-4 v0 a4,4 0 0 1 4,-4"/><path x="320" y="608" width="8" height="8" fill="rgb(55 55 55)" d="M324,608 h0 a4,4 0 0 1 4,4 v0 a4,4 0 0 1 -4,4 h0 a4,4 0 0 1 -4,-4 v0 a4,4 0 0 1 4,-4"/><path x="352" y="608" width="8" height="8" fill="rgb(55 55 55)" d="M356,608 h0 a4,4 0 0 1 4,4 v0 a4,4 0 0 1 -4,4 h0 a4,4 0 0 1 -4,-4 v0 a4,4 0 0 1 4,-4"/><path x="384" y="608" width="8" height="8" fill="rgb(55 55 55)" d="M388,608 h0 a4,4 0 0 1 4,4 v0 a4,4 0 0 1 -4,4 h0 a4,4 0 0 1 -4,-4 v0 a4,4 0 0 1 4,-4"/><path x="0" y="640" width="8" height="8" fill="rgb(55 55 55)" d="M4,640 h0 a4,4 0 0 1 4,4 v0 a4,4 0 0 1 -4,4 h0 a4,4 0 0 1 -4,-4 v0 a4,4 0 0 1 4,-4"/><path x="32" y="640" width="8" height="8" fill="rgb(55 55 55)" d="M36,640 h0 a4,4 0 0 1 4,4 v0 a4,4 0 0 1 -4,4 h0 a4,4 0 0 1 -4,-4 v0 a4,4 0 0 1 4,-4"/><path x="64" y="640" width="8" height="8" fill="rgb(55 55 55)" d="M68,640 h0 a4,4 0 0 1 4,4 v0 a4,4 0 0 1 -4,4 h0 a4,4 0 0 1 -4,-4 v0 a4,4 0 0 1 4,-4"/><path x="96" y="640" width="8" height="8" fill="rgb(55 55 55)" d="M100,640 h0 a4,4 0 0 1 4,4 v0 a4,4 0 0 1 -4,4 h0 a4,4 0 0 1 -4,-4 v0 a4,4 0 0 1 4,-4"/><path x="128" y="640" width="8" height="8" fill="rgb(55 55 55)" d="M132,640 h0 a4,4 0 0 1 4,4 v0 a4,4 0 0 1 -4,4 h0 a4,4 0 0 1 -4,-4 v0 a4,4 0 0 1 4,-4"/><path x="160" y="640" width="8" height="8" fill="rgb(55 55 55)" d="M164,640 h0 a4,4 0 0 1 4,4 v0 a4,4 0 0 1 -4,4 h0 a4,4 0 0 1 -4,-4 v0 a4,4 0 0 1 4,-4"/><path x="192" y="640" width="8" height="8" fill="rgb(55 55 55)" d="M196,640 h0 a4,4 0 0 1 4,4 v0 a4,4 0 0 1 -4,4 h0 a4,4 0 0 1 -4,-4 v0 a4,4 0 0 1 4,-4"/><path x="224" y="640" width="8" height="8" fill="rgb(55 55 55)" d="M228,640 h0 a4,4 0 0 1 4,4 v0 a4,4 0 0 1 -4,4 h0 a4,4 0 0 1 -4,-4 v0 a4,4 0 0 1 4,-4"/><path x="256" y="640" width="8" height="8" fill="rgb(55 55 55)" d="M260,640 h0 a4,4 0 0 1 4,4 v0 a4,4 0 0 1 -4,4 h0 a4,4 0 0 1 -4,-4 v0 a4,4 0 0 1 4,-4"/><path x="288" y="640" width="8" height="8" fill="rgb(55 55 55)" d="M292,640 h0 a4,4 0 0 1 4,4 v0 a4,4 0 0 1 -4,4 h0 a4,4 0 0 1 -4,-4 v0 a4,4 0 0 1 4,-4"/><path x="320" y="640" width="8" height="8" fill="rgb(55 55 55)" d="M324,640 h0 a4,4 0 0 1 4,4 v0 a4,4 0 0 1 -4,4 h0 a4,4 0 0 1 -4,-4 v0 a4,4 0 0 1 4,-4"/><path x="352" y="640" width="8" height="8" fill="rgb(55 55 55)" d="M356,640 h0 a4,4 0 0 1 4,4 v0 a4,4 0 0 1 -4,4 h0 a4,4 0 0 1 -4,-4 v0 a4,4 0 0 1 4,-4"/><path x="384" y="640" width="8" height="8" fill="rgb(55 55 55)" d="M388,640 h0 a4,4 0 0 1 4,4 v0 a4,4 0 0 1 -4,4 h0 a4,4 0 0 1 -4,-4 v0 a4,4 0 0 1 4,-4"/><path x="0" y="672" width="8" height="8" fill="rgb(55 55 55)" d="M4,672 h0 a4,4 0 0 1 4,4 v0 a4,4 0 0 1 -4,4 h0 a4,4 0 0 1 -4,-4 v0 a4,4 0 0 1 4,-4"/><path x="32" y="672" width="8" height="8" fill="rgb(55 55 55)" d="M36,672 h0 a4,4 0 0 1 4,4 v0 a4,4 0 0 1 -4,4 h0 a4,4 0 0 1 -4,-4 v0 a4,4 0 0 1 4,-4"/><path x="64" y="672" width="8" height="8" fill="rgb(55 55 55)" d="M68,672 h0 a4,4 0 0 1 4,4 v0 a4,4 0 0 1 -4,4 h0 a4,4 0 0 1 -4,-4 v0 a4,4 0 0 1 4,-4"/><path x="96" y="672" width="8" height="8" fill="rgb(55 55 55)" d="M100,672 h0 a4,4 0 0 1 4,4 v0 a4,4 0 0 1 -4,4 h0 a4,4 0 0 1 -4,-4 v0 a4,4 0 0 1 4,-4"/><path x="128" y="672" width="8" height="8" fill="rgb(55 55 55)" d="M132,672 h0 a4,4 0 0 1 4,4 v0 a4,4 0 0 1 -4,4 h0 a4,4 0 0 1 -4,-4 v0 a4,4 0 0 1 4,-4"/><path x="160" y="672" width="8" height="8" fill="rgb(55 55 55)" d="M164,672 h0 a4,4 0 0 1 4,4 v0 a4,4 0 0 1 -4,4 h0 a4,4 0 0 1 -4,-4 v0 a4,4 0 0 1 4,-4"/><path x="192" y="672" width="8" height="8" fill="rgb(55 55 55)" d="M196,672 h0 a4,4 0 0 1 4,4 v0 a4,4 0 0 1 -4,4 h0 a4,4 0 0 1 -4,-4 v0 a4,4 0 0 1 4,-4"/><path x="224" y="672" width="8" height="8" fill="rgb(55 55 55)" d="M228,672 h0 a4,4 0 0 1 4,4 v0 a4,4 0 0 1 -4,4 h0 a4,4 0 0 1 -4,-4 v0 a4,4 0 0 1 4,-4"/><path x="256" y="672" width="8" height="8" fill="rgb(55 55 55)" d="M260,672 h0 a4,4 0 0 1 4,4 v0 a4,4 0 0 1 -4,4 h0 a4,4 0 0 1 -4,-4 v0 a4,4 0 0 1 4,-4"/><path x="288" y="672" width="8" height="8" fill="rgb(55 55 55)" d="M292,672 h0 a4,4 0 0 1 4,4 v0 a4,4 0 0 1 -4,4 h0 a4,4 0 0 1 -4,-4 v0 a4,4 0 0 1 4,-4"/><path x="320" y="672" width="8" height="8" fill="rgb(55 55 55)" d="M324,672 h0 a4,4 0 0 1 4,4 v0 a4,4 0 0 1 -4,4 h0 a4,4 0 0 1 -4,-4 v0 a4,4 0 0 1 4,-4"/><path x="352" y="672" width="8" height="8" fill="rgb(55 55 55)" d="M356,672 h0 a4,4 0 0 1 4,4 v0 a4,4 0 0 1 -4,4 h0 a4,4 0 0 1 -4,-4 v0 a4,4 0 0 1 4,-4"/><path x="384" y="672" width="8" height="8" fill="rgb(55 55 55)" d="M388,672 h0 a4,4 0 0 1 4,4 v0 a4,4 0 0 1 -4,4 h0 a4,4 0 0 1 -4,-4 v0 a4,4 0 0 1 4,-4"/><path x="0" y="704" width="8" height="8" fill="rgb(55 55 55)" d="M4,704 h0 a4,4 0 0 1 4,4 v0 a4,4 0 0 1 -4,4 h0 a4,4 0 0 1 -4,-4 v0 a4,4 0 0 1 4,-4"/><path x="32" y="704" width="8" height="8" fill="rgb(55 55 55)" d="M36,704 h0 a4,4 0 0 1 4,4 v0 a4,4 0 0 1 -4,4 h0 a4,4 0 0 1 -4,-4 v0 a4,4 0 0 1 4,-4"/><path x="64" y="704" width="8" height="8" fill="rgb(55 55 55)" d="M68,704 h0 a4,4 0 0 1 4,4 v0 a4,4 0 0 1 -4,4 h0 a4,4 0 0 1 -4,-4 v0 a4,4 0 0 1 4,-4"/><path x="96" y="704" width="8" height="8" fill="rgb(55 55 55)" d="M100,704 h0 a4,4 0 0 1 4,4 v0 a4,4 0 0 1 -4,4 h0 a4,4 0 0 1 -4,-4 v0 a4,4 0 0 1 4,-4"/><path x="128" y="704" width="8" height="8" fill="rgb(55 55 55)" d="M132,704 h0 a4,4 0 0 1 4,4 v0 a4,4 0 0 1 -4,4 h0 a4,4 0 0 1 -4,-4 v0 a4,4 0 0 1 4,-4"/><path x="160" y="704" width="8" height="8" fill="rgb(55 55 55)" d="M164,704 h0 a4,4 0 0 1 4,4 v0 a4,4 0 0 1 -4,4 h0 a4,4 0 0 1 -4,-4 v0 a4,4 0 0 1 4,-4"/><path x="192" y="704" width="8" height="8" fill="rgb(55 55 55)" d="M196,704 h0 a4,4 0 0 1 4,4 v0 a4,4 0 0 1 -4,4 h0 a4,4 0 0 1 -4,-4 v0 a4,4 0 0 1 4,-4"/><path x="224" y="704" width="8" height="8" fill="rgb(55 55 55)" d="M228,704 h0 a4,4 0 0 1 4,4 v0 a4,4 0 0 1 -4,4 h0 a4,4 0 0 1 -4,-4 v0 a4,4 0 0 1 4,-4"/><path x="256" y="704" width="8" height="8" fill="rgb(55 55 55)" d="M260,704 h0 a4,4 0 0 1 4,4 v0 a4,4 0 0 1 -4,4 h0 a4,4 0 0 1 -4,-4 v0 a4,4 0 0 1 4,-4"/><path x="288" y="704" width="8" height="8" fill="rgb(55 55 55)" d="M292,704 h0 a4,4 0 0 1 4,4 v0 a4,4 0 0 1 -4,4 h0 a4,4 0 0 1 -4,-4 v0 a4,4 0 0 1 4,-4"/><path x="320" y="704" width="8" height="8" fill="rgb(55 55 55)" d="M324,704 h0 a4,4 0 0 1 4,4 v0 a4,4 0 0 1 -4,4 h0 a4,4 0 0 1 -4,-4 v0 a4,4 0 0 1 4,-4"/><path x="352" y="704" width="8" height="8" fill="rgb(55 55 55)" d="M356,704 h0 a4,4 0 0 1 4,4 v0 a4,4 0 0 1 -4,4 h0 a4,4 0 0 1 -4,-4 v0 a4,4 0 0 1 4,-4"/><path x="384" y="704" width="8" height="8" fill="rgb(55 55 55)" d="M388,704 h0 a4,4 0 0 1 4,4 v0 a4,4 0 0 1 -4,4 h0 a4,4 0 0 1 -4,-4 v0 a4,4 0 0 1 4,-4"/><path x="0" y="736" width="8" height="8" fill="rgb(55 55 55)" d="M4,736 h0 a4,4 0 0 1 4,4 v0 a4,4 0 0 1 -4,4 h0 a4,4 0 0 1 -4,-4 v0 a4,4 0 0 1 4,-4"/><path x="32" y="736" width="8" height="8" fill="rgb(55 55 55)" d="M36,736 h0 a4,4 0 0 1 4,4 v0 a4,4 0 0 1 -4,4 h0 a4,4 0 0 1 -4,-4 v0 a4,4 0 0 1 4,-4"/><path x="64" y="736" width="8" height="8" fill="rgb(55 55 55)" d="M68,736 h0 a4,4 0 0 1 4,4 v0 a4,4 0 0 1 -4,4 h0 a4,4 0 0 1 -4,-4 v0 a4,4 0 0 1 4,-4"/><path x="96" y="736" width="8" height="8" fill="rgb(55 55 55)" d="M100,736 h0 a4,4 0 0 1 4,4 v0 a4,4 0 0 1 -4,4 h0 a4,4 0 0 1 -4,-4 v0 a4,4 0 0 1 4,-4"/><path x="128" y="736" width="8" height="8" fill="rgb(55 55 55)" d="M132,736 h0 a4,4 0 0 1 4,4 v0 a4,4 0 0 1 -4,4 h0 a4,4 0 0 1 -4,-4 v0 a4,4 0 0 1 4,-4"/><path x="160" y="736" width="8" height="8" fill="rgb(55 55 55)" d="M164,736 h0 a4,4 0 0 1 4,4 v0 a4,4 0 0 1 -4,4 h0 a4,4 0 0 1 -4,-4 v0 a4,4 0 0 1 4,-4"/><path x="192" y="736" width="8" height="8" fill="rgb(55 55 55)" d="M196,736 h0 a4,4 0 0 1 4,4 v0 a4,4 0 0 1 -4,4 h0 a4,4 0 0 1 -4,-4 v0 a4,4 0 0 1 4,-4"/><path x="224" y="736" width="8" height="8" fill="rgb(55 55 55)" d="M228,736 h0 a4,4 0 0 1 4,4 v0 a4,4 0 0 1 -4,4 h0 a4,4 0 0 1 -4,-4 v0 a4,4 0 0 1 4,-4"/><path x="256" y="736" width="8" height="8" fill="rgb(55 55 55)" d="M260,736 h0 a4,4 0 0 1 4,4 v0 a4,4 0 0 1 -4,4 h0 a4,4 0 0 1 -4,-4 v0 a4,4 0 0 1 4,-4"/><path x="288" y="736" width="8" height="8" fill="rgb(55 55 55)" d="M292,736 h0 a4,4 0 0 1 4,4 v0 a4,4 0 0 1 -4,4 h0 a4,4 0 0 1 -4,-4 v0 a4,4 0 0 1 4,-4"/><path x="320" y="736" width="8" height="8" fill="rgb(55 55 55)" d="M324,736 h0 a4,4 0 0 1 4,4 v0 a4,4 0 0 1 -4,4 h0 a4,4 0 0 1 -4,-4 v0 a4,4 0 0 1 4,-4"/><path x="352" y="736" width="8" height="8" fill="rgb(55 55 55)" d="M356,736 h0 a4,4 0 0 1 4,4 v0 a4,4 0 0 1 -4,4 h0 a4,4 0 0 1 -4,-4 v0 a4,4 0 0 1 4,-4"/><path x="384" y="736" width="8" height="8" fill="rgb(55 55 55)" d="M388,736 h0 a4,4 0 0 1 4,4 v0 a4,4 0 0 1 -4,4 h0 a4,4 0 0 1 -4,-4 v0 a4,4 0 0 1 4,-4"/><path x="0" y="768" width="8" height="8" fill="rgb(55 55 55)" d="M4,768 h0 a4,4 0 0 1 4,4 v0 a4,4 0 0 1 -4,4 h0 a4,4 0 0 1 -4,-4 v0 a4,4 0 0 1 4,-4"/><path x="32" y="768" width="8" height="8" fill="rgb(55 55 55)" d="M36,768 h0 a4,4 0 0 1 4,4 v0 a4,4 0 0 1 -4,4 h0 a4,4 0 0 1 -4,-4 v0 a4,4 0 0 1 4,-4"/><path x="64" y="768" width="8" height="8" fill="rgb(55 55 55)" d="M68,768 h0 a4,4 0 0 1 4,4 v0 a4,4 0 0 1 -4,4 h0 a4,4 0 0 1 -4,-4 v0 a4,4 0 0 1 4,-4"/><path x="96" y="768" width="8" height="8" fill="rgb(55 55 55)" d="M100,768 h0 a4,4 0 0 1 4,4 v0 a4,4 0 0 1 -4,4 h0 a4,4 0 0 1 -4,-4 v0 a4,4 0 0 1 4,-4"/><path x="128" y="768" width="8" height="8" fill="rgb(55 55 55)" d="M132,768 h0 a4,4 0 0 1 4,4 v0 a4,4 0 0 1 -4,4 h0 a4,4 0 0 1 -4,-4 v0 a4,4 0 0 1 4,-4"/><path x="160" y="768" width="8" height="8" fill="rgb(55 55 55)" d="M164,768 h0 a4,4 0 0 1 4,4 v0 a4,4 0 0 1 -4,4 h0 a4,4 0 0 1 -4,-4 v0 a4,4 0 0 1 4,-4"/><path x="192" y="768" width="8" height="8" fill="rgb(55 55 55)" d="M196,768 h0 a4,4 0 0 1 4,4 v0 a4,4 0 0 1 -4,4 h0 a4,4 0 0 1 -4,-4 v0 a4,4 0 0 1 4,-4"/><path x="224" y="768" width="8" height="8" fill="rgb(55 55 55)" d="M228,768 h0 a4,4 0 0 1 4,4 v0 a4,4 0 0 1 -4,4 h0 a4,4 0 0 1 -4,-4 v0 a4,4 0 0 1 4,-4"/><path x="256" y="768" width="8" height="8" fill="rgb(55 55 55)" d="M260,768 h0 a4,4 0 0 1 4,4 v0 a4,4 0 0 1 -4,4 h0 a4,4 0 0 1 -4,-4 v0 a4,4 0 0 1 4,-4"/><path x="288" y="768" width="8" height="8" fill="rgb(55 55 55)" d="M292,768 h0 a4,4 0 0 1 4,4 v0 a4,4 0 0 1 -4,4 h0 a4,4 0 0 1 -4,-4 v0 a4,4 0 0 1 4,-4"/><path x="320" y="768" width="8" height="8" fill="rgb(55 55 55)" d="M324,768 h0 a4,4 0 0 1 4,4 v0 a4,4 0 0 1 -4,4 h0 a4,4 0 0 1 -4,-4 v0 a4,4 0 0 1 4,-4"/><path x="352" y="768" width="8" height="8" fill="rgb(55 55 55)" d="M356,768 h0 a4,4 0 0 1 4,4 v0 a4,4 0 0 1 -4,4 h0 a4,4 0 0 1 -4,-4 v0 a4,4 0 0 1 4,-4"/><path x="384" y="768" width="8" height="8" fill="rgb(55 55 55)" d="M388,768 h0 a4,4 0 0 1 4,4 v0 a4,4 0 0 1 -4,4 h0 a4,4 0 0 1 -4,-4 v0 a4,4 0 0 1 4,-4"/><path x="0" y="800" width="8" height="8" fill="rgb(55 55 55)" d="M4,800 h0 a4,4 0 0 1 4,4 v0 a4,4 0 0 1 -4,4 h0 a4,4 0 0 1 -4,-4 v0 a4,4 0 0 1 4,-4"/><path x="32" y="800" width="8" height="8" fill="rgb(55 55 55)" d="M36,800 h0 a4,4 0 0 1 4,4 v0 a4,4 0 0 1 -4,4 h0 a4,4 0 0 1 -4,-4 v0 a4,4 0 0 1 4,-4"/><path x="64" y="800" width="8" height="8" fill="rgb(55 55 55)" d="M68,800 h0 a4,4 0 0 1 4,4 v0 a4,4 0 0 1 -4,4 h0 a4,4 0 0 1 -4,-4 v0 a4,4 0 0 1 4,-4"/><path x="96" y="800" width="8" height="8" fill="rgb(55 55 55)" d="M100,800 h0 a4,4 0 0 1 4,4 v0 a4,4 0 0 1 -4,4 h0 a4,4 0 0 1 -4,-4 v0 a4,4 0 0 1 4,-4"/><path x="128" y="800" width="8" height="8" fill="rgb(55 55 55)" d="M132,800 h0 a4,4 0 0 1 4,4 v0 a4,4 0 0 1 -4,4 h0 a4,4 0 0 1 -4,-4 v0 a4,4 0 0 1 4,-4"/><path x="160" y="800" width="8" height="8" fill="rgb(55 55 55)" d="M164,800 h0 a4,4 0 0 1 4,4 v0 a4,4 0 0 1 -4,4 h0 a4,4 0 0 1 -4,-4 v0 a4,4 0 0 1 4,-4"/><path x="192" y="800" width="8" height="8" fill="rgb(55 55 55)" d="M196,800 h0 a4,4 0 0 1 4,4 v0 a4,4 0 0 1 -4,4 h0 a4,4 0 0 1 -4,-4 v0 a4,4 0 0 1 4,-4"/><path x="224" y="800" width="8" height="8" fill="rgb(55 55 55)" d="M228,800 h0 a4,4 0 0 1 4,4 v0 a4,4 0 0 1 -4,4 h0 a4,4 0 0 1 -4,-4 v0 a4,4 0 0 1 4,-4"/><path x="256" y="800" width="8" height="8" fill="rgb(55 55 55)" d="M260,800 h0 a4,4 0 0 1 4,4 v0 a4,4 0 0 1 -4,4 h0 a4,4 0 0 1 -4,-4 v0 a4,4 0 0 1 4,-4"/><path x="288" y="800" width="8" height="8" fill="rgb(55 55 55)" d="M292,800 h0 a4,4 0 0 1 4,4 v0 a4,4 0 0 1 -4,4 h0 a4,4 0 0 1 -4,-4 v0 a4,4 0 0 1 4,-4"/><path x="320" y="800" width="8" height="8" fill="rgb(55 55 55)" d="M324,800 h0 a4,4 0 0 1 4,4 v0 a4,4 0 0 1 -4,4 h0 a4,4 0 0 1 -4,-4 v0 a4,4 0 0 1 4,-4"/><path x="352" y="800" width="8" height="8" fill="rgb(55 55 55)" d="M356,800 h0 a4,4 0 0 1 4,4 v0 a4,4 0 0 1 -4,4 h0 a4,4 0 0 1 -4,-4 v0 a4,4 0 0 1 4,-4"/><path x="384" y="800" width="8" height="8" fill="rgb(55 55 55)" d="M388,800 h0 a4,4 0 0 1 4,4 v0 a4,4 0 0 1 -4,4 h0 a4,4 0 0 1 -4,-4 v0 a4,4 0 0 1 4,-4"/><path x="0" y="832" width="8" height="8" fill="rgb(55 55 55)" d="M4,832 h0 a4,4 0 0 1 4,4 v0 a4,4 0 0 1 -4,4 h0 a4,4 0 0 1 -4,-4 v0 a4,4 0 0 1 4,-4"/><path x="32" y="832" width="8" height="8" fill="rgb(55 55 55)" d="M36,832 h0 a4,4 0 0 1 4,4 v0 a4,4 0 0 1 -4,4 h0 a4,4 0 0 1 -4,-4 v0 a4,4 0 0 1 4,-4"/><path x="64" y="832" width="8" height="8" fill="rgb(55 55 55)" d="M68,832 h0 a4,4 0 0 1 4,4 v0 a4,4 0 0 1 -4,4 h0 a4,4 0 0 1 -4,-4 v0 a4,4 0 0 1 4,-4"/><path x="96" y="832" width="8" height="8" fill="rgb(55 55 55)" d="M100,832 h0 a4,4 0 0 1 4,4 v0 a4,4 0 0 1 -4,4 h0 a4,4 0 0 1 -4,-4 v0 a4,4 0 0 1 4,-4"/><path x="128" y="832" width="8" height="8" fill="rgb(55 55 55)" d="M132,832 h0 a4,4 0 0 1 4,4 v0 a4,4 0 0 1 -4,4 h0 a4,4 0 0 1 -4,-4 v0 a4,4 0 0 1 4,-4"/><path x="160" y="832" width="8" height="8" fill="rgb(55 55 55)" d="M164,832 h0 a4,4 0 0 1 4,4 v0 a4,4 0 0 1 -4,4 h0 a4,4 0 0 1 -4,-4 v0 a4,4 0 0 1 4,-4"/><path x="192" y="832" width="8" height="8" fill="rgb(55 55 55)" d="M196,832 h0 a4,4 0 0 1 4,4 v0 a4,4 0 0 1 -4,4 h0 a4,4 0 0 1 -4,-4 v0 a4,4 0 0 1 4,-4"/><path x="224" y="832" width="8" height="8" fill="rgb(55 55 55)" d="M228,832 h0 a4,4 0 0 1 4,4 v0 a4,4 0 0 1 -4,4 h0 a4,4 0 0 1 -4,-4 v0 a4,4 0 0 1 4,-4"/><path x="256" y="832" width="8" height="8" fill="rgb(55 55 55)" d="M260,832 h0 a4,4 0 0 1 4,4 v0 a4,4 0 0 1 -4,4 h0 a4,4 0 0 1 -4,-4 v0 a4,4 0 0 1 4,-4"/><path x="288" y="832" width="8" height="8" fill="rgb(55 55 55)" d="M292,832 h0 a4,4 0 0 1 4,4 v0 a4,4 0 0 1 -4,4 h0 a4,4 0 0 1 -4,-4 v0 a4,4 0 0 1 4,-4"/><path x="320" y="832" width="8" height="8" fill="rgb(55 55 55)" d="M324,832 h0 a4,4 0 0 1 4,4 v0 a4,4 0 0 1 -4,4 h0 a4,4 0 0 1 -4,-4 v0 a4,4 0 0 1 4,-4"/><path x="352" y="832" width="8" height="8" fill="rgb(55 55 55)" d="M356,832 h0 a4,4 0 0 1 4,4 v0 a4,4 0 0 1 -4,4 h0 a4,4 0 0 1 -4,-4 v0 a4,4 0 0 1 4,-4"/><path x="384" y="832" width="8" height="8" fill="rgb(55 55 55)" d="M388,832 h0 a4,4 0 0 1 4,4 v0 a4,4 0 0 1 -4,4 h0 a4,4 0 0 1 -4,-4 v0 a4,4 0 0 1 4,-4"/><path x="0" y="864" width="8" height="8" fill="rgb(55 55 55)" d="M4,864 h0 a4,4 0 0 1 4,4 v0 a4,4 0 0 1 -4,4 h0 a4,4 0 0 1 -4,-4 v0 a4,4 0 0 1 4,-4"/><path x="32" y="864" width="8" height="8" fill="rgb(55 55 55)" d="M36,864 h0 a4,4 0 0 1 4,4 v0 a4,4 0 0 1 -4,4 h0 a4,4 0 0 1 -4,-4 v0 a4,4 0 0 1 4,-4"/><path x="64" y="864" width="8" height="8" fill="rgb(55 55 55)" d="M68,864 h0 a4,4 0 0 1 4,4 v0 a4,4 0 0 1 -4,4 h0 a4,4 0 0 1 -4,-4 v0 a4,4 0 0 1 4,-4"/><path x="96" y="864" width="8" height="8" fill="rgb(55 55 55)" d="M100,864 h0 a4,4 0 0 1 4,4 v0 a4,4 0 0 1 -4,4 h0 a4,4 0 0 1 -4,-4 v0 a4,4 0 0 1 4,-4"/><path x="128" y="864" width="8" height="8" fill="rgb(55 55 55)" d="M132,864 h0 a4,4 0 0 1 4,4 v0 a4,4 0 0 1 -4,4 h0 a4,4 0 0 1 -4,-4 v0 a4,4 0 0 1 4,-4"/><path x="160" y="864" width="8" height="8" fill="rgb(55 55 55)" d="M164,864 h0 a4,4 0 0 1 4,4 v0 a4,4 0 0 1 -4,4 h0 a4,4 0 0 1 -4,-4 v0 a4,4 0 0 1 4,-4"/><path x="192" y="864" width="8" height="8" fill="rgb(55 55 55)" d="M196,864 h0 a4,4 0 0 1 4,4 v0 a4,4 0 0 1 -4,4 h0 a4,4 0 0 1 -4,-4 v0 a4,4 0 0 1 4,-4"/><path x="224" y="864" width="8" height="8" fill="rgb(55 55 55)" d="M228,864 h0 a4,4 0 0 1 4,4 v0 a4,4 0 0 1 -4,4 h0 a4,4 0 0 1 -4,-4 v0 a4,4 0 0 1 4,-4"/><path x="256" y="864" width="8" height="8" fill="rgb(55 55 55)" d="M260,864 h0 a4,4 0 0 1 4,4 v0 a4,4 0 0 1 -4,4 h0 a4,4 0 0 1 -4,-4 v0 a4,4 0 0 1 4,-4"/><path x="288" y="864" width="8" height="8" fill="rgb(55 55 55)" d="M292,864 h0 a4,4 0 0 1 4,4 v0 a4,4 0 0 1 -4,4 h0 a4,4 0 0 1 -4,-4 v0 a4,4 0 0 1 4,-4"/><path x="320" y="864" width="8" height="8" fill="rgb(55 55 55)" d="M324,864 h0 a4,4 0 0 1 4,4 v0 a4,4 0 0 1 -4,4 h0 a4,4 0 0 1 -4,-4 v0 a4,4 0 0 1 4,-4"/><path x="352" y="864" width="8" height="8" fill="rgb(55 55 55)" d="M356,864 h0 a4,4 0 0 1 4,4 v0 a4,4 0 0 1 -4,4 h0 a4,4 0 0 1 -4,-4 v0 a4,4 0 0 1 4,-4"/><path x="384" y="864" width="8" height="8" fill="rgb(55 55 55)" d="M388,864 h0 a4,4 0 0 1 4,4 v0 a4,4 0 0 1 -4,4 h0 a4,4 0 0 1 -4,-4 v0 a4,4 0 0 1 4,-4"/><path x="0" y="896" width="8" height="8" fill="rgb(55 55 55)" d="M4,896 h0 a4,4 0 0 1 4,4 v0 a4,4 0 0 1 -4,4 h0 a4,4 0 0 1 -4,-4 v0 a4,4 0 0 1 4,-4"/><path x="32" y="896" width="8" height="8" fill="rgb(55 55 55)" d="M36,896 h0 a4,4 0 0 1 4,4 v0 a4,4 0 0 1 -4,4 h0 a4,4 0 0 1 -4,-4 v0 a4,4 0 0 1 4,-4"/><path x="64" y="896" width="8" height="8" fill="rgb(55 55 55)" d="M68,896 h0 a4,4 0 0 1 4,4 v0 a4,4 0 0 1 -4,4 h0 a4,4 0 0 1 -4,-4 v0 a4,4 0 0 1 4,-4"/><path x="96" y="896" width="8" height="8" fill="rgb(55 55 55)" d="M100,896 h0 a4,4 0 0 1 4,4 v0 a4,4 0 0 1 -4,4 h0 a4,4 0 0 1 -4,-4 v0 a4,4 0 0 1 4,-4"/><path x="128" y="896" width="8" height="8" fill="rgb(55 55 55)" d="M132,896 h0 a4,4 0 0 1 4,4 v0 a4,4 0 0 1 -4,4 h0 a4,4 0 0 1 -4,-4 v0 a4,4 0 0 1 4,-4"/><path x="160" y="896" width="8" height="8" fill="rgb(55 55 55)" d="M164,896 h0 a4,4 0 0 1 4,4 v0 a4,4 0 0 1 -4,4 h0 a4,4 0 0 1 -4,-4 v0 a4,4 0 0 1 4,-4"/><path x="192" y="896" width="8" height="8" fill="rgb(55 55 55)" d="M196,896 h0 a4,4 0 0 1 4,4 v0 a4,4 0 0 1 -4,4 h0 a4,4 0 0 1 -4,-4 v0 a4,4 0 0 1 4,-4"/><path x="224" y="896" width="8" height="8" fill="rgb(55 55 55)" d="M228,896 h0 a4,4 0 0 1 4,4 v0 a4,4 0 0 1 -4,4 h0 a4,4 0 0 1 -4,-4 v0 a4,4 0 0 1 4,-4"/><path x="256" y="896" width="8" height="8" fill="rgb(55 55 55)" d="M260,896 h0 a4,4 0 0 1 4,4 v0 a4,4 0 0 1 -4,4 h0 a4,4 0 0 1 -4,-4 v0 a4,4 0 0 1 4,-4"/><path x="288" y="896" width="8" height="8" fill="rgb(55 55 55)" d="M292,896 h0 a4,4 0 0 1 4,4 v0 a4,4 0 0 1 -4,4 h0 a4,4 0 0 1 -4,-4 v0 a4,4 0 0 1 4,-4"/><path x="320" y="896" width="8" height="8" fill="rgb(55 55 55)" d="M324,896 h0 a4,4 0 0 1 4,4 v0 a4,4 0 0 1 -4,4 h0 a4,4 0 0 1 -4,-4 v0 a4,4 0 0 1 4,-4"/><path x="352" y="896" width="8" height="8" fill="rgb(55 55 55)" d="M356,896 h0 a4,4 0 0 1 4,4 v0 a4,4 0 0 1 -4,4 h0 a4,4 0 0 1 -4,-4 v0 a4,4 0 0 1 4,-4"/><path x="384" y="896" width="8" height="8" fill="rgb(55 55 55)" d="M388,896 h0 a4,4 0 0 1 4,4 v0 a4,4 0 0 1 -4,4 h0 a4,4 0 0 1 -4,-4 v0 a4,4 0 0 1 4,-4"/><path x="0" y="928" width="8" height="8" fill="rgb(55 55 55)" d="M4,928 h0 a4,4 0 0 1 4,4 v0 a4,4 0 0 1 -4,4 h0 a4,4 0 0 1 -4,-4 v0 a4,4 0 0 1 4,-4"/><path x="32" y="928" width="8" height="8" fill="rgb(55 55 55)" d="M36,928 h0 a4,4 0 0 1 4,4 v0 a4,4 0 0 1 -4,4 h0 a4,4 0 0 1 -4,-4 v0 a4,4 0 0 1 4,-4"/><path x="64" y="928" width="8" height="8" fill="rgb(55 55 55)" d="M68,928 h0 a4,4 0 0 1 4,4 v0 a4,4 0 0 1 -4,4 h0 a4,4 0 0 1 -4,-4 v0 a4,4 0 0 1 4,-4"/><path x="96" y="928" width="8" height="8" fill="rgb(55 55 55)" d="M100,928 h0 a4,4 0 0 1 4,4 v0 a4,4 0 0 1 -4,4 h0 a4,4 0 0 1 -4,-4 v0 a4,4 0 0 1 4,-4"/><path x="128" y="928" width="8" height="8" fill="rgb(55 55 55)" d="M132,928 h0 a4,4 0 0 1 4,4 v0 a4,4 0 0 1 -4,4 h0 a4,4 0 0 1 -4,-4 v0 a4,4 0 0 1 4,-4"/><path x="160" y="928" width="8" height="8" fill="rgb(55 55 55)" d="M164,928 h0 a4,4 0 0 1 4,4 v0 a4,4 0 0 1 -4,4 h0 a4,4 0 0 1 -4,-4 v0 a4,4 0 0 1 4,-4"/><path x="192" y="928" width="8" height="8" fill="rgb(55 55 55)" d="M196,928 h0 a4,4 0 0 1 4,4 v0 a4,4 0 0 1 -4,4 h0 a4,4 0 0 1 -4,-4 v0 a4,4 0 0 1 4,-4"/><path x="224" y="928" width="8" height="8" fill="rgb(55 55 55)" d="M228,928 h0 a4,4 0 0 1 4,4 v0 a4,4 0 0 1 -4,4 h0 a4,4 0 0 1 -4,-4 v0 a4,4 0 0 1 4,-4"/><path x="256" y="928" width="8" height="8" fill="rgb(55 55 55)" d="M260,928 h0 a4,4 0 0 1 4,4 v0 a4,4 0 0 1 -4,4 h0 a4,4 0 0 1 -4,-4 v0 a4,4 0 0 1 4,-4"/><path x="288" y="928" width="8" height="8" fill="rgb(55 55 55)" d="M292,928 h0 a4,4 0 0 1 4,4 v0 a4,4 0 0 1 -4,4 h0 a4,4 0 0 1 -4,-4 v0 a4,4 0 0 1 4,-4"/><path x="320" y="928" width="8" height="8" fill="rgb(55 55 55)" d="M324,928 h0 a4,4 0 0 1 4,4 v0 a4,4 0 0 1 -4,4 h0 a4,4 0 0 1 -4,-4 v0 a4,4 0 0 1 4,-4"/><path x="352" y="928" width="8" height="8" fill="rgb(55 55 55)" d="M356,928 h0 a4,4 0 0 1 4,4 v0 a4,4 0 0 1 -4,4 h0 a4,4 0 0 1 -4,-4 v0 a4,4 0 0 1 4,-4"/><path x="384" y="928" width="8" height="8" fill="rgb(55 55 55)" d="M388,928 h0 a4,4 0 0 1 4,4 v0 a4,4 0 0 1 -4,4 h0 a4,4 0 0 1 -4,-4 v0 a4,4 0 0 1 4,-4"/><path x="0" y="960" width="8" height="8" fill="rgb(55 55 55)" d="M4,960 h0 a4,4 0 0 1 4,4 v0 a4,4 0 0 1 -4,4 h0 a4,4 0 0 1 -4,-4 v0 a4,4 0 0 1 4,-4"/><path x="32" y="960" width="8" height="8" fill="rgb(55 55 55)" d="M36,960 h0 a4,4 0 0 1 4,4 v0 a4,4 0 0 1 -4,4 h0 a4,4 0 0 1 -4,-4 v0 a4,4 0 0 1 4,-4"/><path x="64" y="960" width="8" height="8" fill="rgb(55 55 55)" d="M68,960 h0 a4,4 0 0 1 4,4 v0 a4,4 0 0 1 -4,4 h0 a4,4 0 0 1 -4,-4 v0 a4,4 0 0 1 4,-4"/><path x="96" y="960" width="8" height="8" fill="rgb(55 55 55)" d="M100,960 h0 a4,4 0 0 1 4,4 v0 a4,4 0 0 1 -4,4 h0 a4,4 0 0 1 -4,-4 v0 a4,4 0 0 1 4,-4"/><path x="128" y="960" width="8" height="8" fill="rgb(55 55 55)" d="M132,960 h0 a4,4 0 0 1 4,4 v0 a4,4 0 0 1 -4,4 h0 a4,4 0 0 1 -4,-4 v0 a4,4 0 0 1 4,-4"/><path x="160" y="960" width="8" height="8" fill="rgb(55 55 55)" d="M164,960 h0 a4,4 0 0 1 4,4 v0 a4,4 0 0 1 -4,4 h0 a4,4 0 0 1 -4,-4 v0 a4,4 0 0 1 4,-4"/><path x="192" y="960" width="8" height="8" fill="rgb(55 55 55)" d="M196,960 h0 a4,4 0 0 1 4,4 v0 a4,4 0 0 1 -4,4 h0 a4,4 0 0 1 -4,-4 v0 a4,4 0 0 1 4,-4"/><path x="224" y="960" width="8" height="8" fill="rgb(55 55 55)" d="M228,960 h0 a4,4 0 0 1 4,4 v0 a4,4 0 0 1 -4,4 h0 a4,4 0 0 1 -4,-4 v0 a4,4 0 0 1 4,-4"/><path x="256" y="960" width="8" height="8" fill="rgb(55 55 55)" d="M260,960 h0 a4,4 0 0 1 4,4 v0 a4,4 0 0 1 -4,4 h0 a4,4 0 0 1 -4,-4 v0 a4,4 0 0 1 4,-4"/><path x="288" y="960" width="8" height="8" fill="rgb(55 55 55)" d="M292,960 h0 a4,4 0 0 1 4,4 v0 a4,4 0 0 1 -4,4 h0 a4,4 0 0 1 -4,-4 v0 a4,4 0 0 1 4,-4"/></svg>