<!-- <svg id="visual" viewBox="0 0 1440 320" width="1440" height="320" xmlns="http://www.w3.org/2000/svg" xmlns:xlink="http://www.w3.org/1999/xlink" version="1.1"><path d="M0 105L34.3 100.8C68.7 96.7 137.3 88.3 205.8 87.2C274.3 86 342.7 92 411.2 94.7C479.7 97.3 548.3 96.7 617 90.7C685.7 84.7 754.3 73.3 823 73C891.7 72.7 960.3 83.3 1028.8 86.5C1097.3 89.7 1165.7 85.3 1234.2 89.7C1302.7 94 1371.3 107 1405.7 113.5L1440 120L1440 321L1405.7 321C1371.3 321 1302.7 321 1234.2 321C1165.7 321 1097.3 321 1028.8 321C960.3 321 891.7 321 823 321C754.3 321 685.7 321 617 321C548.3 321 479.7 321 411.2 321C342.7 321 274.3 321 205.8 321C137.3 321 68.7 321 34.3 321L0 321Z" fill="#dee1f2"></path><path d="M0 166L34.3 165.8C68.7 165.7 137.3 165.3 205.8 167.7C274.3 170 342.7 175 411.2 165.3C479.7 155.7 548.3 131.3 617 127.3C685.7 123.3 754.3 139.7 823 138.5C891.7 137.3 960.3 118.7 1028.8 118.3C1097.3 118 1165.7 136 1234.2 148.2C1302.7 160.3 1371.3 166.7 1405.7 169.8L1440 173L1440 321L1405.7 321C1371.3 321 1302.7 321 1234.2 321C1165.7 321 1097.3 321 1028.8 321C960.3 321 891.7 321 823 321C754.3 321 685.7 321 617 321C548.3 321 479.7 321 411.2 321C342.7 321 274.3 321 205.8 321C137.3 321 68.7 321 34.3 321L0 321Z" fill="#dce0f1"></path><path d="M0 203L34.3 195.3C68.7 187.7 137.3 172.3 205.8 171.3C274.3 170.3 342.7 183.7 411.2 186C479.7 188.3 548.3 179.7 617 168.7C685.7 157.7 754.3 144.3 823 142C891.7 139.7 960.3 148.3 1028.8 150C1097.3 151.7 1165.7 146.3 1234.2 151.5C1302.7 156.7 1371.3 172.3 1405.7 180.2L1440 188L1440 321L1405.7 321C1371.3 321 1302.7 321 1234.2 321C1165.7 321 1097.3 321 1028.8 321C960.3 321 891.7 321 823 321C754.3 321 685.7 321 617 321C548.3 321 479.7 321 411.2 321C342.7 321 274.3 321 205.8 321C137.3 321 68.7 321 34.3 321L0 321Z" fill="#e0e3f4"></path><path d="M0 179L34.3 178C68.7 177 137.3 175 205.8 180.8C274.3 186.7 342.7 200.3 411.2 211.8C479.7 223.3 548.3 232.7 617 235C685.7 237.3 754.3 232.7 823 231.8C891.7 231 960.3 234 1028.8 229.2C1097.3 224.3 1165.7 211.7 1234.2 204.7C1302.7 197.7 1371.3 196.3 1405.7 195.7L1440 195L1440 321L1405.7 321C1371.3 321 1302.7 321 1234.2 321C1165.7 321 1097.3 321 1028.8 321C960.3 321 891.7 321 823 321C754.3 321 685.7 321 617 321C548.3 321 479.7 321 411.2 321C342.7 321 274.3 321 205.8 321C137.3 321 68.7 321 34.3 321L0 321Z" fill="#e2e4f4"></path><path d="M0 211L34.3 220C68.7 229 137.3 247 205.8 254.2C274.3 261.3 342.7 257.7 411.2 258.7C479.7 259.7 548.3 265.3 617 259.2C685.7 253 754.3 235 823 230.2C891.7 225.3 960.3 233.7 1028.8 234.5C1097.3 235.3 1165.7 228.7 1234.2 233.8C1302.7 239 1371.3 256 1405.7 264.5L1440 273L1440 321L1405.7 321C1371.3 321 1302.7 321 1234.2 321C1165.7 321 1097.3 321 1028.8 321C960.3 321 891.7 321 823 321C754.3 321 685.7 321 617 321C548.3 321 479.7 321 411.2 321C342.7 321 274.3 321 205.8 321C137.3 321 68.7 321 34.3 321L0 321Z" fill="#e4e7f5"></path><path d="M0 266L34.3 270.3C68.7 274.7 137.3 283.3 205.8 287.8C274.3 292.3 342.7 292.7 411.2 286.8C479.7 281 548.3 269 617 267.3C685.7 265.7 754.3 274.3 823 279.3C891.7 284.3 960.3 285.7 1028.8 281.7C1097.3 277.7 1165.7 268.3 1234.2 262.5C1302.7 256.7 1371.3 254.3 1405.7 253.2L1440 252L1440 321L1405.7 321C1371.3 321 1302.7 321 1234.2 321C1165.7 321 1097.3 321 1028.8 321C960.3 321 891.7 321 823 321C754.3 321 685.7 321 617 321C548.3 321 479.7 321 411.2 321C342.7 321 274.3 321 205.8 321C137.3 321 68.7 321 34.3 321L0 321Z" fill="#e8eaf6"></path></svg> -->

<svg xmlns="http://www.w3.org/2000/svg" xmlns:xlink="http://www.w3.org/1999/xlink" style="margin:auto;background:transparent;display:block;z-index:1;position:relative" width="1440" height="320" preserveAspectRatio="xMidYMid" viewBox="0 0 1440 320">
<g transform="translate(720,160) scale(1,-1) translate(-720,-160)"><linearGradient id="lg-0.567678491349016" x1="0" x2="1" y1="0" y2="0">
  <stop stop-color="#e8eaf6" offset="0"></stop>
  <stop stop-color="#e8eaf6" offset="1"></stop>
</linearGradient><path d="" fill="url(#lg-0.567678491349016)" opacity="0.55">
  <animate attributeName="d" dur="9.090909090909092s" repeatCount="indefinite" keyTimes="0;0.333;0.667;1" calcMode="spline" keySplines="0.5 0 0.5 1;0.5 0 0.5 1;0.5 0 0.5 1" begin="0s" values="M0 0L 0 169.62505133403621Q 120 173.22953479848712  240 152.97870722691874T 480 106.13189650415191T 720 159.97388783885816T 960 167.53636319666623T 1200 165.07885177732445T 1440 166.22888692764906L 1440 0 Z;M0 0L 0 110.2292568434315Q 120 197.68528495040889  240 148.90627191165646T 480 120.48917491455268T 720 127.26492329127728T 960 118.44736878529756T 1200 125.98885954436625T 1440 97.51744394812091L 1440 0 Z;M0 0L 0 157.58806469139682Q 120 189.83319066726182  240 160.0865156789272T 480 138.8268400268004T 720 102.89275589050773T 960 113.89673357584414T 1200 140.7229867235969T 1440 124.62667971149607L 1440 0 Z;M0 0L 0 169.62505133403621Q 120 173.22953479848712  240 152.97870722691874T 480 106.13189650415191T 720 159.97388783885816T 960 167.53636319666623T 1200 165.07885177732445T 1440 166.22888692764906L 1440 0 Z"></animate>
</path><path d="" fill="url(#lg-0.567678491349016)" opacity="0.55">
  <animate attributeName="d" dur="9.090909090909092s" repeatCount="indefinite" keyTimes="0;0.333;0.667;1" calcMode="spline" keySplines="0.5 0 0.5 1;0.5 0 0.5 1;0.5 0 0.5 1" begin="-1.8181818181818183s" values="M0 0L 0 138.15387408341576Q 120 192.77039463180688  240 149.7519497096211T 480 138.29008835870593T 720 99.06632706743048T 960 152.90196754439035T 1200 136.5635448293871T 1440 171.87690174947613L 1440 0 Z;M0 0L 0 163.9009830775006Q 120 193.54297932278394  240 165.85309320695023T 480 131.35135732631926T 720 101.70386935026005T 960 125.95653368028239T 1200 115.304136487692T 1440 170.9842630724139L 1440 0 Z;M0 0L 0 110.3901113308846Q 120 154.17051825848625  240 112.07618759657477T 480 115.25426076335731T 720 117.70469577301517T 960 133.2222621623487T 1200 146.20422078082834T 1440 132.48532237292676L 1440 0 Z;M0 0L 0 138.15387408341576Q 120 192.77039463180688  240 149.7519497096211T 480 138.29008835870593T 720 99.06632706743048T 960 152.90196754439035T 1200 136.5635448293871T 1440 171.87690174947613L 1440 0 Z"></animate>
</path><path d="" fill="url(#lg-0.567678491349016)" opacity="0.55">
  <animate attributeName="d" dur="9.090909090909092s" repeatCount="indefinite" keyTimes="0;0.333;0.667;1" calcMode="spline" keySplines="0.5 0 0.5 1;0.5 0 0.5 1;0.5 0 0.5 1" begin="-3.6363636363636367s" values="M0 0L 0 160.87916851180995Q 120 138.28517205617882  240 112.85198284176383T 480 134.20511245096375T 720 94.3941331829921T 960 134.8329234197787T 1200 105.31327898706571T 1440 121.32583396419443L 1440 0 Z;M0 0L 0 131.13812536491042Q 120 228.32251758919233  240 175.6958787057635T 480 172.45024360318672T 720 156.79981027352125T 960 163.88233559934577T 1200 137.24069804858516T 1440 146.00120247049733L 1440 0 Z;M0 0L 0 162.54048834014606Q 120 193.31180875337537  240 157.87189005232742T 480 130.82926718488872T 720 119.96362952610886T 960 170.08459961682968T 1200 152.34677719384416T 1440 132.25491683110405L 1440 0 Z;M0 0L 0 160.87916851180995Q 120 138.28517205617882  240 112.85198284176383T 480 134.20511245096375T 720 94.3941331829921T 960 134.8329234197787T 1200 105.31327898706571T 1440 121.32583396419443L 1440 0 Z"></animate>
</path><path d="" fill="url(#lg-0.567678491349016)" opacity="0.55">
  <animate attributeName="d" dur="9.090909090909092s" repeatCount="indefinite" keyTimes="0;0.333;0.667;1" calcMode="spline" keySplines="0.5 0 0.5 1;0.5 0 0.5 1;0.5 0 0.5 1" begin="-5.454545454545455s" values="M0 0L 0 142.6003820933452Q 120 154.76515932410678  240 127.20688715760139T 480 137.56300862758243T 720 128.62848019292994T 960 132.95356462507937T 1200 101.55076072305467T 1440 155.99325005400743L 1440 0 Z;M0 0L 0 173.76090799483487Q 120 185.590159266028  240 162.1626760736661T 480 91.51723020072096T 720 162.67261533624287T 960 173.24059413771755T 1200 159.26720813883725T 1440 98.4750092558393L 1440 0 Z;M0 0L 0 171.80055292425754Q 120 169.5485404996656  240 134.15625327459054T 480 121.38148881948503T 720 161.71250378125885T 960 101.99540165477508T 1200 143.72014968429778T 1440 100.85568270054297L 1440 0 Z;M0 0L 0 142.6003820933452Q 120 154.76515932410678  240 127.20688715760139T 480 137.56300862758243T 720 128.62848019292994T 960 132.95356462507937T 1200 101.55076072305467T 1440 155.99325005400743L 1440 0 Z"></animate>
</path><path d="" fill="url(#lg-0.567678491349016)" opacity="0.55">
  <animate attributeName="d" dur="9.090909090909092s" repeatCount="indefinite" keyTimes="0;0.333;0.667;1" calcMode="spline" keySplines="0.5 0 0.5 1;0.5 0 0.5 1;0.5 0 0.5 1" begin="-7.272727272727273s" values="M0 0L 0 157.55451040454335Q 120 176.59185322527284  240 140.05875860910288T 480 145.26596969737528T 720 127.33026773881028T 960 172.2701925244279T 1200 97.94960953860425T 1440 170.26518197308263L 1440 0 Z;M0 0L 0 149.56709053069764Q 120 162.3257353444174  240 131.9018784256763T 480 105.51174660395782T 720 148.82473963064365T 960 130.47861359933506T 1200 92.40838120293084T 1440 155.5275925050138L 1440 0 Z;M0 0L 0 140.07512679995526Q 120 165.50378132304803  240 132.18929575322338T 480 135.7664130669006T 720 93.56720061530011T 960 101.3326984788394T 1200 104.21697839305541T 1440 162.90948331169184L 1440 0 Z;M0 0L 0 157.55451040454335Q 120 176.59185322527284  240 140.05875860910288T 480 145.26596969737528T 720 127.33026773881028T 960 172.2701925244279T 1200 97.94960953860425T 1440 170.26518197308263L 1440 0 Z"></animate>
</path></g>
</svg>